<svg xmlns="http://www.w3.org/2000/svg" viewBox="0 0 24 24" width="24" height="24"><title>account group 2</title><g class="nc-icon-wrapper" fill="#535353"><g id="Outline_Icons_1_"><g id="Outline_Icons"><path fill="none" stroke="#535353" stroke-linejoin="round" stroke-miterlimit="10" d="M4 6.609V8l-2.539.726C.933 8.877.5 9.45.5 10v.5H6"/><path fill="none" stroke="#535353" stroke-linejoin="round" stroke-miterlimit="10" d="M7 6.578V8l2.538.726c.529.151.962.724.962 1.274v.5H5"/><ellipse fill="none" stroke="#535353" stroke-linejoin="round" stroke-miterlimit="10" cx="5.5" cy="3.771" rx="3" ry="3.271"/><path fill="none" stroke="#535353" stroke-linejoin="round" stroke-miterlimit="10" d="M8.469 3.198c-.5.5-1.93.476-2.469-.528-1 1-2.625 1-3.434.43"/><path fill="none" stroke="#535353" stroke-linejoin="round" stroke-miterlimit="10" d="M17 6.609V8l-2.539.726c-.528.151-.961.724-.961 1.274v.5H19"/><path fill="none" stroke="#535353" stroke-linejoin="round" stroke-miterlimit="10" d="M20 6.594V8l2.538.726c.529.151.962.724.962 1.274v.5H18"/><ellipse fill="none" stroke="#535353" stroke-linejoin="round" stroke-miterlimit="10" cx="18.5" cy="3.771" rx="3" ry="3.271"/><path fill="none" stroke="#535353" stroke-linejoin="round" stroke-miterlimit="10" d="M21.453 3.195c-.5.5-1.914.479-2.453-.525-1 1-2.625 1-3.434.43"/><path fill="none" stroke="#535353" stroke-linejoin="round" stroke-miterlimit="10" d="M10.5 19.609V21l-2.539.726C7.433 21.877 7 22.45 7 23v.5h5.5"/><path fill="none" stroke="#535353" stroke-linejoin="round" stroke-miterlimit="10" d="M13.5 19.609V21l2.538.726c.529.151.962.724.962 1.274v.5h-5.5"/><ellipse fill="none" stroke="#535353" stroke-linejoin="round" stroke-miterlimit="10" cx="12" cy="16.771" rx="3" ry="3.271"/><path fill="none" stroke="#535353" stroke-linejoin="round" stroke-miterlimit="10" d="M14.953 16.17c-.5.5-1.914.504-2.453-.5-1 1-2.625 1-3.434.43"/><path fill="none" stroke="#535353" stroke-linecap="round" stroke-linejoin="round" stroke-miterlimit="10" d="M4 12.5L6.5 15"/><path fill="none" stroke="#535353" stroke-linecap="round" stroke-linejoin="round" stroke-miterlimit="10" d="M20 12.5L17.5 15"/></g></g><path fill="none" id="Invisible_Shape" d="M0 0h24v24H0z"/></g></svg>