<svg xmlns="http://www.w3.org/2000/svg" viewBox="0 0 24 24" width="24" height="24"><title>check circle 3</title><rect data-element="frame" x="6" y="6" width="12" height="12" rx="1" ry="1" stroke="none" fill="#ffffff"/><g class="nc-icon-wrapper" fill="#00a802"><g id="Filled_Icons_1_"><path d="M12.002 0c-6.617 0-12 5.385-12 12 0 6.616 5.383 12 12 12 6.616 0 12-5.384 12-12-.001-6.615-5.384-12-12-12zm5.34 8.866L9.84 15.867a.498.498 0 0 1-.695-.013l-2.498-2.5a.5.5 0 0 1 .707-.707l2.158 2.158 7.147-6.67a.5.5 0 1 1 .683.731z" id="Filled_Icons"/></g><path fill="none" id="Invisible_Shape" d="M0 0h24v24H0z"/></g></svg>