<svg xmlns="http://www.w3.org/2000/svg" viewBox="0 0 64 64" width="32" height="32"><title>cog check blue</title><g class="nc-icon-wrapper" stroke-width="3" fill="#004379"><g id="Outline_Icons_1_"><g id="Outline_Icons"><path fill="none" stroke="#004379" stroke-linecap="round" stroke-linejoin="round" stroke-miterlimit="10" d="M43.84 12.68c-1.98-1.21-5.48-2.12-7.8-2.67v-8.68h-8.01v8.68c-2.31 0.56-5.82 1.47-7.79 2.67l-6.14-6.13-7.55 7.56 6.13 6.13c-1.21 1.98-2.12 5.48-2.68 7.79h-8.67v8.01h8.67c0.56 2.31 1.47 5.82 2.68 7.8l-6.13 6.14 7.55 7.55 6.13-6.14c1.98 1.21 5.49 2.12 7.8 2.69v8.67h8.01v-8.67c2.31-0.56 5.82-1.47 7.8-2.68l6.14 6.13 7.55-7.55-6.13-6.14c1.21-1.98 2.12-5.48 2.68-7.79h8.66v-8.01h-8.66a55.51 55.51 0 0 0-1.32-4.69"/><path fill="none" stroke="#004379" stroke-linecap="round" stroke-linejoin="round" stroke-miterlimit="10" d="M62.74 1.33l-30.7 37.38-10.68-12.01"/></g></g><path fill="none" id="Invisible_Shape" d="M0 0h64.08v64.08h-64.08z"/></g></svg>