<svg xmlns="http://www.w3.org/2000/svg" viewBox="0 0 32 32" width="32" height="32"><title>compasses_blue_2</title><rect data-element="frame" x="8" y="8" width="16" height="16" rx="1" ry="1" stroke="none" fill="#ffffff"/><g class="nc-icon-wrapper" fill="#004379"><g id="Outline_Icons"><path fill="none" stroke="#004379" stroke-linecap="round" stroke-linejoin="round" stroke-miterlimit="10" d="M5.99 20.62v4.69l-2.67 5.99-2.66-5.99v-17.95a2.66 2.66 0 0 1 5.33 0v10.6"/><path fill="none" stroke="#004379" stroke-linecap="round" stroke-linejoin="round" stroke-miterlimit="10" d="M5.99 8.69h-5.33"/><path fill="none" stroke="#004379" stroke-linecap="round" stroke-linejoin="round" stroke-miterlimit="10" d="M5.32 25.94h-3.99"/><path fill="none" stroke="#004379" stroke-linecap="round" stroke-linejoin="round" stroke-miterlimit="10" d="M19.29 9.98l10.38 16.54-3.06 1.86-11.32-18.41"/><path fill="none" stroke="#004379" stroke-linecap="round" stroke-linejoin="round" stroke-miterlimit="10" d="M28.19 27.42l2.27 3.85"/><path fill="none" stroke="#004379" stroke-linecap="round" stroke-linejoin="round" stroke-miterlimit="10" d="M11.3 4.66a3.99 3.99 0 1 1 7.98 0v5.32h-7.98v-5.33z"/><path fill="none" stroke="#004379" stroke-linecap="round" stroke-linejoin="round" stroke-miterlimit="10" d="M11.3 9.98l-2.95 7.98h-7.69v2.66h10.64l3.99-10.64"/></g><path fill="none" id="Invisible_Shape" d="M0 0h31.92v31.92h-31.92z"/></g></svg>