<svg xmlns="http://www.w3.org/2000/svg" viewBox="0 0 64 64" width="32" height="32"><title>computer bar graph blue</title><g class="nc-icon-wrapper" stroke-width="3" fill="#004379"><g id="Outline_Icons"><path fill="none" stroke="#004379" stroke-linecap="round" stroke-linejoin="round" stroke-miterlimit="10" d="M62.74 50.49c0 2.34-1.79 4.24-4 4.24h-53.4c-2.21 0-4-1.9-4.01-4.24v-39.57c0-2.34 1.79-4.24 4.01-4.25h53.4c2.21 0 4 1.9 4 4.25v39.57z"/><path fill="none" stroke="#004379" stroke-linecap="round" stroke-linejoin="round" stroke-miterlimit="10" d="M13.35 60.07h37.38"/><path fill="none" stroke="#004379" stroke-linecap="round" stroke-linejoin="round" stroke-miterlimit="10" d="M30.7 54.73v5.35"/><path fill="none" stroke="#004379" stroke-linejoin="round" stroke-miterlimit="10" d="M32.04 48.06a1.33 1.33 0 1 0 0 2.67 1.33 1.33 0 1 0 0-2.67z"/><path fill="none" stroke="#004379" stroke-linejoin="round" stroke-miterlimit="10" d="M1.33 44.05h61.41"/><path fill="none" stroke="#004379" stroke-linejoin="round" stroke-miterlimit="10" d="M17.36 28.04h8.01v10.68h-8.01z"/><path fill="none" stroke="#004379" stroke-linejoin="round" stroke-miterlimit="10" d="M30.7 20.02h8.01v18.69h-8.01z"/><path fill="none" stroke="#004379" stroke-linejoin="round" stroke-miterlimit="10" d="M44.05 14.68h8.02v24.04h-8.01z"/><path fill="none" stroke="#004379" stroke-linejoin="round" stroke-miterlimit="10" d="M12.02 13.35v26.7"/></g><path fill="none" id="Invisible_Shape" d="M0 0h64.08v64.08h-64.08z"/></g></svg>