<svg xmlns="http://www.w3.org/2000/svg" width="41" height="34" viewBox="0 0 41.958 34.448">
    <title>easy logo small</title>
    <g class="nc-icon-wrapper" fill="#707070" opacity="0.04">
        <defs>
            <clipPath id="a">
                <path class="a" d="M17.89 21.31L20.57 0l21.26 2.4-2.68 21.31z" transform="translate(0 -1.19)" style=""
                      fill="none" />
            </clipPath>
        </defs>
        <g transform="translate(.128 1.19)">
            <g class="b" clip-path="url(#a)">
                <path class="c"
                      d="M30 5.89l-8.72-3.73L31.14.51l9.15 3.78L30 5.89M31.26.01h-.11l-10.66 1.8a.25.25 0 0 1 .14.26l-.05.35 9.15 3.92v-.19A.25.25 0 0 1 30 5.9a.24.24 0 0 1 .2.28v.19l10.74-1.68v-.35a.26.26 0 0 1 .2-.22L31.26.01"
                      style="" fill="#707070" />
                <path class="c"
                      d="M20.43 1.81a.25.25 0 0 0-.26.23l-1.75 13.87a.23.23 0 0 0 .12.25L28 21.25a.23.23 0 0 1-.13-.25v-.36l-8.97-4.83L20.58 2.4l.05-.35a.25.25 0 0 0-.14-.24h-.06m20.81 2.31h-.06a.26.26 0 0 0-.2.22v.35l-1.73 13.39-10.88 2.63-.05.35a.23.23 0 0 1-.19.21l11.35-2.74a.27.27 0 0 0 .19-.22l1.76-13.92a.22.22 0 0 0-.19-.27"
                      style="" fill="#707070" />
                <path class="c"
                      d="M30 5.9a.25.25 0 0 0-.25.23v.19l-1.83 14.33v.36a.23.23 0 0 0 .13.25h.12a.23.23 0 0 0 .19-.21l.05-.35 1.8-14.34v-.19a.24.24 0 0 0-.2-.28"
                      style="" fill="#707070" />
            </g>
            <path class="d" d="M28.21 21.1c-14.61 21.79-16-10.62-28 11.82" fill="none" stroke="#707070"
                  stroke-linecap="round" stroke-linejoin="round" stroke-width="0.5px" />
        </g>
    </g>
</svg>