<?xml version="1.0" encoding="utf-8"?>
<!-- Generator: Adobe Illustrator 25.1.0, SVG Export Plug-In . SVG Version: 6.00 Build 0)  -->
<svg version="1.1" id="Ebene_1" xmlns="http://www.w3.org/2000/svg" xmlns:xlink="http://www.w3.org/1999/xlink" x="0px" y="0px"
	 viewBox="0 0 161.9 35.8" style="enable-background:new 0 0 161.9 35.8;" xml:space="preserve">
<style type="text/css">
	.st2{fill:#0D456B;}
</style>
<path class="st2" d="M122.3,16.2c-3.7-0.1-4.2-2.9-4.3-3.7h11.5c0-4.7-2.4-7.8-7.3-7.8c-4.8,0-7.3,3.2-7.3,6.9c0,4.1,2.8,7,7.5,7
	c4.5,0,6.3-2.8,6.7-4.1h-3.3C125.2,15.5,124,16.2,122.3,16.2L122.3,16.2z M122.1,7.1c2.2,0,3.7,0.8,4.1,3H118
	C118.7,7.6,120.6,7.1,122.1,7.1z M86.6,16.2c-3.7-0.1-4.2-2.9-4.3-3.7h11.5c0-4.7-2.4-7.8-7.3-7.8c-4.8,0-7.3,3.2-7.3,6.9
	c0,4.1,2.8,7,7.5,7c4.5,0,6.3-2.8,6.7-4.1H90C89.5,15.5,88.3,16.2,86.6,16.2L86.6,16.2z M86.4,7.1c2.2,0,3.7,0.8,4.1,3h-8.2
	C83,7.6,84.9,7.1,86.4,7.1z M98.5,0.5h3v17.7h-3V0.5z M107.2,0.5h3.1v17.7h-3.1V0.5z M133.9,5.1h3v1.6c1-0.9,2.2-2.1,4.9-2.1
	s5.1,1.1,5.1,5.1v8.4h-3v-7.3c0-2.6-0.8-3.7-2.8-3.7c-2.4,0-3.4,1-4.1,1.9v9h-3L133.9,5.1L133.9,5.1L133.9,5.1z M150.7,5.6h2.3V1.3
	h3v4.3h4.6v2.6H156v6c0,0.9,0.4,1.9,2.1,1.9c0.6,0,1.8-0.1,2.6-0.4v2.7c-1.5,0.2-2.2,0.3-3.3,0.3c-2.9,0-4.5-0.9-4.5-3.8V8.2h-2.3
	L150.7,5.6L150.7,5.6L150.7,5.6z"/>
<path class="st2" d="M34.3,21.7h-4.9l-3.1-4l-3.1,4h-4.9l5.7-6.8l-5.9-7.1H23l3.4,4.3l3.5-4.3h4.9l-5.9,7.1L34.3,21.7z M58.1,14.9
	h-4.9l-3.1-4l-3.1,4h-4.9l5.7-6.8l-6-7.1h4.9l3.4,4.3L53.6,1h4.9l-5.9,7.1C52.6,8.1,58.1,14.9,58.1,14.9z"/>
<path class="st2" d="M8.2,16.2c-3.7-0.1-4.2-2.9-4.3-3.7h11.5c0-4.7-2.4-7.8-7.3-7.8s-7.3,3.2-7.3,6.9c0,4.1,2.8,7,7.5,7
	c4.5,0,6.3-2.8,6.7-4.1h-3.4C11.1,15.5,9.9,16.2,8.2,16.2z M8,7.1c2.2,0,3.7,0.8,4.1,3H4C4.6,7.7,6.4,7.1,8,7.1z M68.3,16.1
	c-2.9,0-4.2-2.1-4.2-4.6c0-2.1,1.6-4.2,4.5-4.2c2.2,0,3.5,1.2,3.8,2.3h3c-0.3-2.2-2.3-4.9-7.1-4.9c-4.7,0-7.4,3.2-7.4,6.7
	c0,5.3,3.4,7.3,7.6,7.3c4.7,0,6.6-3.2,7-5h-3.2C72.2,14.8,70.8,16.1,68.3,16.1z"/>
<path class="st2" d="M37.1,1h2.1v20.7h-2.1V1z"/>
<path class="st2" d="M87.5,28.8c-1-1.4-2.6-1.6-3.4-1.6c-2.6,0-3.1,1.4-3.1,2.1c0,1,0.5,1.8,3,2.1c1.6,0.2,2,0.3,2,0.8
	c0,0.6-0.7,0.8-1.5,0.8c-1,0-1.9-0.3-2.4-1.1l-1.3,0.8c0.6,0.7,1.3,1.6,3.5,1.6c1.1,0,3.3-0.2,3.3-2.2c0-1.6-1.6-1.9-3.4-2.1
	c-0.9-0.1-1.5-0.2-1.5-0.7c0-0.4,0.4-0.8,1.5-0.8c1.4,0,1.9,0.7,2.1,1C86.3,29.5,87.5,28.8,87.5,28.8z M94.6,34.3
	c1.8,0,3.7-0.9,3.7-3.5c0-1.8-1.1-3.5-3.7-3.5s-3.7,1.7-3.7,3.5C90.9,33.4,92.8,34.3,94.6,34.3z M94.6,33c-1.4,0-2.1-0.8-2.1-2.2
	c0-1.5,1-2.2,2.1-2.2c1.2,0,2.1,0.6,2.1,2.2C96.7,32.2,96,33,94.6,33z M102.2,34.1h1.5v-8.9h-1.5V34.1z M114.6,27.5h-1.5V32
	c-0.4,0.5-0.9,1-2.1,1c-1,0-1.4-0.6-1.4-1.9v-3.6h-1.5v4.2c0,2,1.2,2.6,2.6,2.6c1.3,0,2-0.6,2.5-1v0.8h1.5L114.6,27.5L114.6,27.5z
	 M118.1,29h1.2v3.4c0,1.4,0.8,1.9,2.2,1.9c0.5,0,0.9,0,1.6-0.1v-1.3c-0.4,0.1-1,0.2-1.3,0.2c-0.9,0-1.1-0.5-1.1-1v-3h2.3v-1.3h-2.2
	v-2.1h-1.5v2.1h-1.2C118.1,27.8,118.1,29,118.1,29z M127,34.1h1.5v-6.6H127V34.1z M127,26.3h1.5V25H127V26.3z M136.1,34.3
	c1.8,0,3.7-0.9,3.7-3.5c0-1.8-1.1-3.5-3.7-3.5s-3.7,1.7-3.7,3.5C132.4,33.4,134.3,34.3,136.1,34.3z M136.1,33
	c-1.4,0-2.1-0.8-2.1-2.2c0-1.5,1-2.2,2.1-2.2c1.2,0,2.1,0.6,2.1,2.2C138.2,32.2,137.4,33,136.1,33z M143.6,34.1h1.5v-4.6
	c0.4-0.5,0.9-1,2.1-1c1,0,1.4,0.6,1.4,1.9v3.7h1.5v-4.2c0-2-1.2-2.6-2.6-2.6c-1.3,0-2,0.6-2.5,1v-0.8h-1.5v6.6H143.6z M160.6,28.8
	c-1-1.4-2.6-1.6-3.4-1.6c-2.6,0-3.1,1.4-3.1,2.1c0,1,0.5,1.8,3,2.1c1.6,0.2,2,0.3,2,0.8c0,0.6-0.7,0.8-1.5,0.8c-1,0-1.9-0.3-2.4-1.1
	l-1.3,0.7c0.6,0.7,1.3,1.6,3.5,1.6c1.1,0,3.3-0.2,3.3-2.2c0-1.6-1.6-1.9-3.4-2.1c-0.9-0.1-1.5-0.2-1.5-0.7c0-0.4,0.4-0.8,1.5-0.8
	c1.4,0,1.9,0.7,2.1,1L160.6,28.8L160.6,28.8z"/>
</svg>
