<svg xmlns="http://www.w3.org/2000/svg" viewBox="0 0 24 24" width="24" height="24"><title>folder zip</title><g class="nc-icon-wrapper" fill="#535353"><g id="Outline_Icons"><path fill="none" stroke="#535353" stroke-linecap="round" stroke-linejoin="round" stroke-miterlimit="10" d="M3 21.5h17.5a3 3 0 0 0 3-3v-12h-18V19a2.5 2.5 0 0 1-5 0V2.5h7v2h13v2"/><path fill="none" stroke="#535353" stroke-linecap="round" stroke-linejoin="round" stroke-miterlimit="10" d="M17.5 6.5v2h1v5h-3v-5"/><path d="M17 11h-1v1h1v-1z"/><path fill="none" stroke="#535353" stroke-linecap="round" stroke-linejoin="round" stroke-miterlimit="10" stroke-dasharray="1,2" d="M16 15.5h1"/><path fill="none" stroke="#535353" stroke-linecap="round" stroke-linejoin="round" stroke-miterlimit="10" stroke-dasharray="1,2" d="M16 17.5h1"/><path fill="none" stroke="#535353" stroke-linecap="round" stroke-linejoin="round" stroke-miterlimit="10" stroke-dasharray="1,2" d="M16 19.5h1"/><path fill="none" stroke="#535353" stroke-linecap="round" stroke-linejoin="round" stroke-miterlimit="10" stroke-dasharray="1,2" d="M17 16.5h1"/><path fill="none" stroke="#535353" stroke-linecap="round" stroke-linejoin="round" stroke-miterlimit="10" stroke-dasharray="1,2" d="M17 18.5h1"/><path fill="none" stroke="#535353" stroke-linecap="round" stroke-linejoin="round" stroke-miterlimit="10" stroke-dasharray="1,2" d="M17 20.5h1"/></g><path fill="none" id="Invisible_Shape" d="M0 0h24v24H0z"/></g></svg>