<svg xmlns="http://www.w3.org/2000/svg" viewBox="0 0 24 24" width="24" height="24"><title>gauge</title><g class="nc-icon-wrapper" fill="#535353"><g id="Outline_Icons_1_"><g id="Outline_Icons"><circle fill="none" stroke="#535353" stroke-linecap="round" stroke-linejoin="round" stroke-miterlimit="10" cx="12" cy="16" r="1.5"/><path fill="none" stroke="#535353" stroke-linecap="round" stroke-linejoin="round" stroke-miterlimit="10" d="M13.061 14.939l4.95-4.949"/><path fill="none" stroke="#535353" stroke-linecap="round" stroke-linejoin="round" stroke-miterlimit="10" d="M2.5 16.5h2"/><path fill="none" stroke="#535353" stroke-linecap="round" stroke-linejoin="round" stroke-miterlimit="10" d="M21.5 16.5h-2"/><path fill="none" stroke="#535353" stroke-linecap="round" stroke-linejoin="round" stroke-miterlimit="10" d="M20.776 12.365l-1.847.765"/><path fill="none" stroke="#535353" stroke-linecap="round" stroke-linejoin="round" stroke-miterlimit="10" d="M15.635 7.223l-.765 1.848"/><path fill="none" stroke="#535353" stroke-linecap="round" stroke-linejoin="round" stroke-miterlimit="10" d="M12 6.5v2"/><path fill="none" stroke="#535353" stroke-linecap="round" stroke-linejoin="round" stroke-miterlimit="10" d="M8.365 7.223l.765 1.848"/><path fill="none" stroke="#535353" stroke-linecap="round" stroke-linejoin="round" stroke-miterlimit="10" d="M5.283 9.282l1.412 1.415"/><path fill="none" stroke="#535353" stroke-linecap="round" stroke-linejoin="round" stroke-miterlimit="10" d="M3.224 12.365l1.846.765"/><path fill="none" stroke="#535353" stroke-linecap="round" stroke-linejoin="round" stroke-miterlimit="10" d="M12 4.5C5.648 4.5.5 9.649.5 16v4.5h23V16c0-6.351-5.148-11.5-11.5-11.5z"/></g></g><path fill="none" id="Invisible_Shape" d="M0 0h24v24H0z"/></g></svg>