<svg xmlns="http://www.w3.org/2000/svg" viewBox="0 0 352 352"><defs><style>.cls-1{fill:none;stroke:black;stroke-linecap:round;stroke-linejoin:round;stroke-width:10px;}.cls-2{fill:black;}</style></defs><g id="Ebene_2" data-name="Ebene 2"><g id="Ebene_1-2" data-name="Ebene 1"><circle class="cls-1" cx="176" cy="176" r="171"/><path class="cls-2" d="M219,138.5A32.5,32.5,0,1,1,186.5,171,32.54,32.54,0,0,1,219,138.5m0-10A42.5,42.5,0,1,0,261.5,171,42.5,42.5,0,0,0,219,128.5Z"/><path class="cls-2" d="M223.5,120h-9a4,4,0,0,0-4,4v7.3a4,4,0,0,0,4,4h9a4,4,0,0,0,4-4V124a4,4,0,0,0-4-4Z"/><path class="cls-2" d="M223.5,206.7h-9a4,4,0,0,0-4,4V218a4,4,0,0,0,4,4h9a4,4,0,0,0,4-4v-7.3a4,4,0,0,0-4-4Z"/><path class="cls-2" d="M266,162.5h-7.3a4,4,0,0,0-4,4v9a4,4,0,0,0,4,4H266a4,4,0,0,0,4-4v-9a4,4,0,0,0-4-4Z"/><path class="cls-2" d="M179.3,162.5H172a4,4,0,0,0-4,4v9a4,4,0,0,0,4,4h7.3a4,4,0,0,0,4-4v-9a4,4,0,0,0-4-4Z"/><path class="cls-2" d="M253.3,138.83h0m-4.25-8.25a4,4,0,0,0-2.83,1.18l-5.16,5.16a4,4,0,0,0,0,5.65l6.37,6.37a4,4,0,0,0,5.65,0l5.16-5.16a4,4,0,0,0,0-5.66l-6.36-6.36a4,4,0,0,0-2.83-1.18Z"/><path class="cls-2" d="M192,200.13h0m-4.24-8.24a4,4,0,0,0-2.83,1.17l-5.16,5.16a4,4,0,0,0,0,5.66l6.36,6.36a4,4,0,0,0,5.66,0l5.16-5.16a4,4,0,0,0,0-5.65l-6.37-6.37a4,4,0,0,0-2.82-1.17Z"/><path class="cls-2" d="M254.5,200.13h0m-4.25-8.24a4,4,0,0,0-2.82,1.17l-6.37,6.37a4,4,0,0,0,0,5.65l5.16,5.16a4,4,0,0,0,5.66,0l6.36-6.36a4,4,0,0,0,0-5.66l-5.16-5.16a4,4,0,0,0-2.83-1.17Z"/><path class="cls-2" d="M193.19,138.83h0M189,130.58a4,4,0,0,0-2.83,1.18l-6.36,6.36a4,4,0,0,0,0,5.66l5.16,5.16a4,4,0,0,0,5.65,0l6.37-6.37a4,4,0,0,0,0-5.65l-5.16-5.16a4,4,0,0,0-2.83-1.18Z"/><path class="cls-2" d="M152.49,219a20,20,0,1,1-7.87,1.63,20,20,0,0,1,7.87-1.63h0m0-10a30,30,0,1,0,27.58,18.18A29.93,29.93,0,0,0,152.49,209Z"/><path class="cls-2" d="M143.75,212.93h0m-2.37-9.51a4,4,0,0,0-1.57.32l-4.11,1.77a4,4,0,0,0-2.1,5.25l1.27,3a4,4,0,0,0,5.26,2.1l4.1-1.76a4,4,0,0,0,2.1-5.26l-1.27-3a4,4,0,0,0-3.68-2.42Z"/><path class="cls-2" d="M168.82,271.37h0m-2.36-9.52a4,4,0,0,0-1.58.33l-4.1,1.76a4,4,0,0,0-2.1,5.25l1.27,3a4,4,0,0,0,5.25,2.09l4.11-1.76a4,4,0,0,0,2.09-5.25l-1.27-3a4,4,0,0,0-3.67-2.43Z"/><path class="cls-2" d="M184.69,229.29h0m-2.37-9.52a4,4,0,0,0-1.58.33l-3,1.27a4,4,0,0,0-2.09,5.25l1.76,4.11a4,4,0,0,0,5.25,2.1l3-1.27a4,4,0,0,0,2.1-5.26L186,222.2a4,4,0,0,0-3.68-2.43Z"/><path class="cls-2" d="M126.25,254.36h0m-2.37-9.51a4,4,0,0,0-1.57.32l-3,1.27a4,4,0,0,0-2.1,5.25L119,255.8a4,4,0,0,0,3.68,2.42,3.94,3.94,0,0,0,1.57-.32l3-1.27a4,4,0,0,0,2.09-5.25l-1.76-4.11a4,4,0,0,0-3.68-2.42Z"/><path class="cls-2" d="M168.39,209.38h0m-5.57-6.23a4,4,0,0,0-3.71,2.52l-1.2,3a4,4,0,0,0,2.23,5.2l4.15,1.65a3.91,3.91,0,0,0,1.49.29,4,4,0,0,0,3.71-2.52l1.2-3a4,4,0,0,0-2.23-5.2l-4.15-1.65a3.91,3.91,0,0,0-1.49-.29Z"/><path class="cls-2" d="M144.8,268.43h0m-5.57-6.23a4,4,0,0,0-3.71,2.52l-1.2,3a4,4,0,0,0,2.23,5.19l4.15,1.66a3.9,3.9,0,0,0,1.48.29,4,4,0,0,0,3.72-2.52l1.2-3a4,4,0,0,0-2.23-5.2l-4.15-1.66a4.1,4.1,0,0,0-1.49-.28Z"/><path class="cls-2" d="M186.93,250.35h0m-5.57-6.23a4,4,0,0,0-3.71,2.52L176,250.79a4,4,0,0,0,2.23,5.2l3,1.19a3.9,3.9,0,0,0,1.48.29,4,4,0,0,0,3.72-2.52l1.66-4.15a4,4,0,0,0-2.23-5.2l-3-1.19a3.91,3.91,0,0,0-1.49-.29Z"/><path class="cls-2" d="M127.89,226.76h0m-5.58-6.23a4,4,0,0,0-3.71,2.52l-1.66,4.15a4,4,0,0,0,2.23,5.19l3,1.2a4.11,4.11,0,0,0,1.49.29,4,4,0,0,0,3.71-2.52l1.66-4.15a4,4,0,0,0-2.23-5.2l-3-1.19a3.91,3.91,0,0,0-1.49-.29Z"/><path class="cls-2" d="M131.49,110.65a23.9,23.9,0,1,1-9.41,1.94,23.89,23.89,0,0,1,9.41-1.94h0m0-10a33.89,33.89,0,1,0,31.16,20.53,33.78,33.78,0,0,0-31.16-20.53Z"/><path class="cls-2" d="M121.58,103.7h0m-2.37-9.51a4,4,0,0,0-1.57.32l-5.59,2.4a4,4,0,0,0-2.1,5.26l1.84,4.29a4,4,0,0,0,3.68,2.43,4,4,0,0,0,1.57-.33l5.6-2.4a4,4,0,0,0,2.09-5.25l-1.84-4.3a4,4,0,0,0-3.68-2.42Z"/><path class="cls-2" d="M149.9,169.72h0m-2.36-9.52a3.83,3.83,0,0,0-1.58.33l-5.59,2.39a4,4,0,0,0-2.1,5.26l1.84,4.29a4,4,0,0,0,5.26,2.1l5.59-2.4a4,4,0,0,0,2.1-5.25l-1.85-4.3a4,4,0,0,0-3.67-2.42Z"/><path class="cls-2" d="M167.82,122.18h0m-2.36-9.52a4,4,0,0,0-1.58.33l-4.3,1.84a4,4,0,0,0-2.1,5.26l2.4,5.59a4,4,0,0,0,5.26,2.1l4.29-1.85a4,4,0,0,0,2.1-5.25l-2.4-5.59a4,4,0,0,0-3.67-2.43Z"/><path class="cls-2" d="M101.81,150.5h0M99.44,141a4,4,0,0,0-1.57.32l-4.3,1.85a4,4,0,0,0-2.1,5.25l2.4,5.59a4,4,0,0,0,5.26,2.1l4.29-1.85a4,4,0,0,0,2.1-5.25l-2.4-5.59A4,4,0,0,0,99.44,141Z"/><path class="cls-2" d="M148.44,100.12h0m-5.57-6.23a4,4,0,0,0-3.71,2.52l-1.74,4.34a4,4,0,0,0,2.23,5.2l5.65,2.26a4.08,4.08,0,0,0,1.48.28A4,4,0,0,0,150.5,106l1.73-4.35A4,4,0,0,0,150,96.44l-5.65-2.26a3.86,3.86,0,0,0-1.48-.29Z"/><path class="cls-2" d="M121.79,166.82h0m-5.57-6.23a4,4,0,0,0-3.71,2.52l-1.74,4.34a4,4,0,0,0,2.23,5.2l5.65,2.26a4.1,4.1,0,0,0,1.48.29,4,4,0,0,0,3.72-2.52l1.73-4.34a4,4,0,0,0-2.23-5.2l-5.65-2.26a4,4,0,0,0-1.48-.29Z"/><path class="cls-2" d="M169.38,146.4h0m-5.57-6.22a4,4,0,0,0-3.71,2.51l-2.26,5.65a4,4,0,0,0,2.23,5.2l4.34,1.74a4.1,4.1,0,0,0,1.49.28,4,4,0,0,0,3.71-2.51l2.26-5.65a4,4,0,0,0-2.23-5.2l-4.34-1.74a4.1,4.1,0,0,0-1.49-.28Z"/><path class="cls-2" d="M102.68,119.75h0m-5.57-6.22A4,4,0,0,0,93.39,116l-2.25,5.65a4,4,0,0,0,2.23,5.2l4.34,1.74a4.08,4.08,0,0,0,1.48.28,4,4,0,0,0,3.72-2.51l2.26-5.65a4,4,0,0,0-2.24-5.2l-4.34-1.74a4,4,0,0,0-1.48-.28Z"/></g></g></svg>