<?xml version="1.0" encoding="UTF-8" standalone="no"?>
<svg
   id="Group_5281"
   data-name="Group 5281"
   width="220.789"
   height="112.775"
   viewBox="0 0 220.789 112.775"
   version="1.1"
   sodipodi:docname="impact-logo-black-svg.svg"
   inkscape:version="1.4 (86a8ad7, 2024-10-11)"
   xmlns:inkscape="http://www.inkscape.org/namespaces/inkscape"
   xmlns:sodipodi="http://sodipodi.sourceforge.net/DTD/sodipodi-0.dtd"
   xmlns="http://www.w3.org/2000/svg"
   xmlns:svg="http://www.w3.org/2000/svg">
  <sodipodi:namedview
     id="namedview1"
     pagecolor="#ffffff"
     bordercolor="#000000"
     borderopacity="0.25"
     inkscape:showpageshadow="2"
     inkscape:pageopacity="0.0"
     inkscape:pagecheckerboard="0"
     inkscape:deskcolor="#d1d1d1"
     inkscape:zoom="10.427843"
     inkscape:cx="26.707345"
     inkscape:cy="79.498704"
     inkscape:window-width="2560"
     inkscape:window-height="1378"
     inkscape:window-x="2553"
     inkscape:window-y="-6"
     inkscape:window-maximized="1"
     inkscape:current-layer="Group_5281" />
  <defs
     id="defs1">
    <clipPath
       id="clip-path">
      <rect
         id="Rectangle_1111"
         data-name="Rectangle 1111"
         width="220.789"
         height="112.775"
         fill="none" />
    </clipPath>
  </defs>
  <path
     id="Path_3264"
     data-name="Path 3264"
     d="M18.124,124.234l-6.25,19.3-6.215-19.3H0v24.1H3.368v-20h.521l6.18,19.1h3.576l6.18-19.1h.521v20h3.368v-24.1Z"
     transform="translate(0 -42.846)"
     fill="#fff"
     style="fill:#000000" />
  <g
     id="Group_5153"
     data-name="Group 5153"
     style="fill:#000000">
    <g
       id="Group_5152"
       data-name="Group 5152"
       clip-path="url(#clip-path)"
       style="fill:#000000">
      <path
         id="Path_3265"
         data-name="Path 3265"
         d="M48.5,152.076a10.033,10.033,0,0,1-3.7-.59,5.246,5.246,0,0,1-2.343-1.771,7.432,7.432,0,0,1-1.233-2.881,19.053,19.053,0,0,1-.364-3.958,16.423,16.423,0,0,1,.4-3.836,7.181,7.181,0,0,1,1.285-2.778,5.441,5.441,0,0,1,2.344-1.7,9.926,9.926,0,0,1,3.611-.573q4.1,0,5.833,2.292t1.736,6.6a19.858,19.858,0,0,1-.347,3.906,7.1,7.1,0,0,1-1.215,2.881,5.561,5.561,0,0,1-2.326,1.789,9.39,9.39,0,0,1-3.68.625m0-2.951a5.151,5.151,0,0,0,2.17-.383,2.9,2.9,0,0,0,1.284-1.166,5.087,5.087,0,0,0,.626-1.95,20.883,20.883,0,0,0,.156-2.734,8.326,8.326,0,0,0-.955-4.543,3.674,3.674,0,0,0-3.281-1.411,5.679,5.679,0,0,0-2.083.331,2.809,2.809,0,0,0-1.319,1.044,4.806,4.806,0,0,0-.694,1.845,15.363,15.363,0,0,0-.208,2.733,19.365,19.365,0,0,0,.174,2.8,5.1,5.1,0,0,0,.643,1.932,2.806,2.806,0,0,0,1.3,1.131,5.5,5.5,0,0,0,2.187.366"
         transform="translate(-14.093 -46.21)"
         fill="#fff"
         style="fill:#000000" />
      <path
         id="Path_3266"
         data-name="Path 3266"
         d="M78.046,147.214a13.775,13.775,0,0,1-1.562.7,9.851,9.851,0,0,1-1.58.468,8.264,8.264,0,0,1-1.753.191,8.116,8.116,0,0,1-2.708-.417,4.44,4.44,0,0,1-2.014-1.458,7.182,7.182,0,0,1-1.267-2.778,18.391,18.391,0,0,1-.434-4.375q0-4.652,1.684-6.84t5.538-2.187q.521,0,1.181.052t1.267.139q.608.087,1.059.156a5.045,5.045,0,0,0,.59.07v-7.014h3.263v24.3H78.046Zm0-13.4a4.174,4.174,0,0,1-.556-.069c-.278-.047-.6-.087-.972-.122s-.764-.069-1.181-.1-.81-.052-1.181-.052a3.439,3.439,0,0,0-3.194,1.476,9.167,9.167,0,0,0-.9,4.635,13.917,13.917,0,0,0,.26,2.986,5.077,5.077,0,0,0,.729,1.806,2.534,2.534,0,0,0,1.112.92,3.811,3.811,0,0,0,1.441.26,7.09,7.09,0,0,0,1.545-.174q.781-.173,1.441-.347a13.41,13.41,0,0,0,1.459-.486Z"
         transform="translate(-23.013 -42.737)"
         fill="#fff"
         style="fill:#000000" />
      <path
         id="Path_3267"
         data-name="Path 3267"
         d="M107.537,151.346q-1.181.245-2.361.382-1.007.139-2.222.244t-2.326.1a8.7,8.7,0,0,1-3.3-.555,5.082,5.082,0,0,1-2.187-1.667,7.278,7.278,0,0,1-1.215-2.778,17.718,17.718,0,0,1-.382-3.923q0-4.826,1.962-7a6.954,6.954,0,0,1,5.434-2.17,7.054,7.054,0,0,1,5.4,1.91q1.788,1.909,1.788,6.111l-.208,2.4H96.877a5.469,5.469,0,0,0,.937,3.506,4.011,4.011,0,0,0,3.264,1.146q1.006,0,2.135-.034t2.066-.1q1.111-.07,2.187-.174Zm-2.674-9.513a6.007,6.007,0,0,0-.92-3.792,3.7,3.7,0,0,0-3-1.1,3.866,3.866,0,0,0-3.055,1.139,5.742,5.742,0,0,0-1.042,3.758Z"
         transform="translate(-32.262 -46.209)"
         fill="#fff"
         style="fill:#000000" />
      <rect
         id="Rectangle_1109"
         data-name="Rectangle 1109"
         width="3.299"
         height="24.721"
         transform="translate(78.642 80.763)"
         fill="#fff"
         style="fill:#000000" />
      <path
         id="Path_3268"
         data-name="Path 3268"
         d="M137.117,152.076a10.033,10.033,0,0,1-3.7-.59,5.246,5.246,0,0,1-2.343-1.771,7.432,7.432,0,0,1-1.233-2.881,19.049,19.049,0,0,1-.364-3.958,16.421,16.421,0,0,1,.4-3.836,7.181,7.181,0,0,1,1.285-2.778,5.441,5.441,0,0,1,2.344-1.7,9.927,9.927,0,0,1,3.611-.573q4.1,0,5.833,2.292t1.736,6.6a19.862,19.862,0,0,1-.347,3.906,7.1,7.1,0,0,1-1.215,2.881,5.562,5.562,0,0,1-2.326,1.789,9.391,9.391,0,0,1-3.681.625m0-2.951a5.151,5.151,0,0,0,2.17-.383,2.9,2.9,0,0,0,1.284-1.166,5.087,5.087,0,0,0,.626-1.95,20.868,20.868,0,0,0,.156-2.734,8.327,8.327,0,0,0-.954-4.543,3.674,3.674,0,0,0-3.281-1.411,5.679,5.679,0,0,0-2.083.331,2.809,2.809,0,0,0-1.319,1.044,4.805,4.805,0,0,0-.694,1.845,15.364,15.364,0,0,0-.208,2.733,19.366,19.366,0,0,0,.174,2.8,5.1,5.1,0,0,0,.643,1.932,2.806,2.806,0,0,0,1.3,1.131,5.5,5.5,0,0,0,2.187.366"
         transform="translate(-44.655 -46.21)"
         fill="#fff"
         style="fill:#000000" />
      <path
         id="Path_3269"
         data-name="Path 3269"
         d="M157.25,134.368h3.264v1.111a17.455,17.455,0,0,1,1.6-.729,14.513,14.513,0,0,1,1.6-.521,6.919,6.919,0,0,1,1.805-.243,7.531,7.531,0,0,1,2.969.5,3.939,3.939,0,0,1,1.823,1.562,7.238,7.238,0,0,1,.92,2.692,25.073,25.073,0,0,1,.26,3.888v9.062h-3.3v-9.132a23.036,23.036,0,0,0-.121-2.534,5.149,5.149,0,0,0-.469-1.754,2.232,2.232,0,0,0-1.007-1.007,3.906,3.906,0,0,0-1.736-.33,7.693,7.693,0,0,0-1.632.174q-.8.174-1.389.347-.695.244-1.319.521v13.714H157.25Z"
         transform="translate(-54.233 -46.21)"
         fill="#fff"
         style="fill:#000000" />
      <rect
         id="Rectangle_1110"
         data-name="Rectangle 1110"
         width="4.792"
         height="23.958"
         transform="translate(125.585 81.526)"
         fill="#fff"
         style="fill:#000000" />
      <path
         id="Path_3270"
         data-name="Path 3270"
         d="M204.419,134.35h4.618v.833a7.056,7.056,0,0,1,.729-.313c.231-.092.481-.191.747-.295s.561-.214.885-.33a8.532,8.532,0,0,1,.9-.225,4.449,4.449,0,0,1,.833-.087,7.593,7.593,0,0,1,2.5.365,4.533,4.533,0,0,1,1.737,1.059q.658-.243,1.406-.5t1.528-.468a15.207,15.207,0,0,1,1.545-.33,9.335,9.335,0,0,1,1.458-.122,7.325,7.325,0,0,1,2.951.521,4.207,4.207,0,0,1,1.875,1.6,7.4,7.4,0,0,1,.99,2.708,21.989,21.989,0,0,1,.295,3.854v9.062h-4.652v-7.153q0-1.631-.035-2.812a8.469,8.469,0,0,0-.243-1.944,1.974,1.974,0,0,0-.712-1.129,2.433,2.433,0,0,0-1.441-.365,6.113,6.113,0,0,0-1.094.1q-.573.1-1.059.244-.555.139-1.076.312.034.695.07,1.354.034.591.052,1.251t.018,1.146v8.992h-4.653v-8.923q0-1.18-.069-2.014a4.088,4.088,0,0,0-.33-1.389,1.719,1.719,0,0,0-.747-.816,2.723,2.723,0,0,0-1.285-.261,4.969,4.969,0,0,0-.972.1q-.52.1-1.007.208l-1.11.278v12.811h-4.653Z"
         transform="translate(-70.501 -46.192)"
         fill="#fff"
         style="fill:#000000" />
      <path
         id="Path_3271"
         data-name="Path 3271"
         d="M247.455,134.35h4.653v.8q.659-.312,1.319-.59a11.568,11.568,0,0,1,1.267-.434,4.915,4.915,0,0,1,1.336-.191,9.011,9.011,0,0,1,2.987.451,4.79,4.79,0,0,1,2.153,1.51,6.883,6.883,0,0,1,1.285,2.761,21.547,21.547,0,0,1-.069,8.767,6.629,6.629,0,0,1-1.458,2.829,5.082,5.082,0,0,1-2.466,1.441,13.486,13.486,0,0,1-3.472.4q-.486,0-.989-.035c-.335-.023-.643-.058-.92-.1l-.972-.139v7.153h-4.653Zm4.653,13.368q.45.07.9.1.381.034.816.052c.289.012.561.018.816.018a4.822,4.822,0,0,0,1.718-.261,2.2,2.2,0,0,0,1.076-.867,4,4,0,0,0,.556-1.563,14.747,14.747,0,0,0,.157-2.343,6,6,0,0,0-.816-3.646,2.691,2.691,0,0,0-2.206-1.007,4.964,4.964,0,0,0-.972.1,10,10,0,0,0-.972.243q-.556.139-1.076.313Z"
         transform="translate(-85.343 -46.192)"
         fill="#fff"
         style="fill:#000000" />
      <path
         id="Path_3272"
         data-name="Path 3272"
         d="M274.218,134.94q1.249-.277,2.534-.486,1.111-.174,2.362-.347a17.033,17.033,0,0,1,2.326-.174,6.588,6.588,0,0,1,4.549,1.407q1.563,1.405,1.562,4.565v7.048a3.592,3.592,0,0,0,.243,1.111q.173.382.9.521l-.139,3.507a13.2,13.2,0,0,1-2.812-.243,6.311,6.311,0,0,1-2.153-.972,13.914,13.914,0,0,1-1.562.626,11.173,11.173,0,0,1-1.632.416,10.452,10.452,0,0,1-1.91.174,5.214,5.214,0,0,1-4.063-1.458,6.111,6.111,0,0,1-1.319-4.236,6.338,6.338,0,0,1,.416-2.448,3.761,3.761,0,0,1,1.2-1.579,5.386,5.386,0,0,1,1.909-.886,14.36,14.36,0,0,1,2.552-.4l3.716-.278v-.9q0-1.875-2.049-1.875-.869,0-1.979.035t-2.119.1q-1.18.07-2.4.139Zm8.68,9.1-3.16.278a2.33,2.33,0,0,0-1.424.538,1.8,1.8,0,0,0-.521,1.407,2.514,2.514,0,0,0,.382,1.458,1.484,1.484,0,0,0,1.319.556,8.66,8.66,0,0,0,1.007-.069q.59-.069,1.111-.174.625-.138,1.285-.278Z"
         transform="translate(-94.191 -46.192)"
         fill="#fff"
         style="fill:#000000" />
      <path
         id="Path_3273"
         data-name="Path 3273"
         d="M311.853,151.364q-1.076.243-2.117.382-.9.139-1.858.242a15.565,15.565,0,0,1-1.684.1,9.082,9.082,0,0,1-3.316-.538,5.172,5.172,0,0,1-2.239-1.65,7.161,7.161,0,0,1-1.268-2.864,19.237,19.237,0,0,1-.4-4.218q0-4.618,1.718-6.754t5.608-2.135a13.829,13.829,0,0,1,1.718.121q.954.122,1.823.261,1.006.138,2.013.347l-.139,3.993q-.8-.07-1.528-.139c-.44-.046-.891-.081-1.354-.1s-.857-.034-1.18-.034a7.528,7.528,0,0,0-2.031.225,2.3,2.3,0,0,0-1.2.746,3.04,3.04,0,0,0-.573,1.372,11.887,11.887,0,0,0-.156,2.1,14.5,14.5,0,0,0,.156,2.326,3.257,3.257,0,0,0,.59,1.493,2.294,2.294,0,0,0,1.215.781,7.5,7.5,0,0,0,2.031.225c.324,0,.717-.01,1.18-.035s.9-.057,1.319-.1q.729-.069,1.528-.139Z"
         transform="translate(-103.111 -46.192)"
         fill="#fff"
         style="fill:#000000" />
      <path
         id="Path_3274"
         data-name="Path 3274"
         d="M322.273,136.211h-2.048v-4.2h2.048v-4.861h4.653v4.861h4.27v4.2h-4.27v6.563c0,.439,0,.816.017,1.127a2.124,2.124,0,0,0,.156.782.952.952,0,0,0,.434.468,1.85,1.85,0,0,0,.851.157h.816q.434,0,.851-.035.451,0,.972-.035l.208,3.993q-.695.139-1.319.278c-.37.069-.759.127-1.163.174a9.449,9.449,0,0,1-1.059.069,8.773,8.773,0,0,1-2.6-.33,3.434,3.434,0,0,1-1.667-1.094,4.628,4.628,0,0,1-.886-2.031,16,16,0,0,1-.26-3.141Z"
         transform="translate(-110.441 -43.852)"
         fill="#fff"
         style="fill:#000000" />
    </g>
  </g>
  <g
     id="Group_5155"
     data-name="Group 5155">
    <g
       id="Group_5154"
       data-name="Group 5154"
       clip-path="url(#clip-path)">
      <path
         id="Path_3275"
         data-name="Path 3275"
         d="M153.069,60.905a21.174,21.174,0,0,1-8.555-4.193,21.675,21.675,0,0,1-6.674-9.726q-1.906.151-3.77.372L121.393,78.969a4.486,4.486,0,0,0,1.9,5.549,121.7,121.7,0,0,0,29.777-23.613"
         transform="translate(-41.756 -16.205)"
         fill="#ffc600" />
      <path
         id="Path_3276"
         data-name="Path 3276"
         d="M218.11,50.8l-7.829-7.214L194.3,28.856a123.922,123.922,0,0,1-8.242,12.964q1.627.257,3.264.563A115.035,115.035,0,0,1,206,46.8a103.7,103.7,0,0,1,13.242,5.645,4.474,4.474,0,0,0-1.133-1.65"
         transform="translate(-64.169 -9.952)"
         fill="#dc4316" />
      <path
         id="Path_3277"
         data-name="Path 3277"
         d="M236.715,64.864"
         transform="translate(-81.639 -22.371)"
         fill="#dc4316" />
      <path
         id="Path_3278"
         data-name="Path 3278"
         d="M159.5,1.183a4.5,4.5,0,0,0-7.221,1.636l-8.938,22.286-2.425,6.047q1.863-.221,3.769-.372a110.05,110.05,0,0,1,25.806,1.088A123.981,123.981,0,0,0,178.73,18.9Z"
         transform="translate(-48.599 0)"
         fill="#f36a10" />
      <path
         id="Path_3279"
         data-name="Path 3279"
         d="M198,59.271h0a103.928,103.928,0,0,0-13.242-5.645,115.056,115.056,0,0,0-16.68-4.417q-1.637-.306-3.264-.563a134.689,134.689,0,0,1-8.505,10.56q-1.028,1.153-2.072,2.272a121.716,121.716,0,0,1-29.776,23.613,4.5,4.5,0,0,0,3.58.425l67.082-20.288A4.487,4.487,0,0,0,198,59.271"
         transform="translate(-42.925 -16.777)"
         fill="#ffa300" />
    </g>
  </g>
</svg>
