<svg width="150" height="150" viewBox="0 0 150 150" fill="none" xmlns="http://www.w3.org/2000/svg">
<rect x="2.5" y="2.5" width="145" height="145" rx="72.5" stroke="white" stroke-width="5"/>
<path fill-rule="evenodd" clip-rule="evenodd" d="M75.0187 38.7017L94.1699 49.7504V72.6569L75.0157 81.4974L55.1699 72.677V49.7288L75.0187 38.7017ZM59.1699 53.9831V70.0775L73.0001 76.2243V60.1298L59.1699 53.9831ZM77.0001 60.1098V76.176L90.1699 70.0976V54.0314L77.0001 60.1098ZM87.8253 50.708L74.9845 56.6345L61.6465 50.7065L74.9815 43.2982L87.8253 50.708Z" fill="white"/>
<path fill-rule="evenodd" clip-rule="evenodd" d="M57.1196 69.1665L77 78.0022V101.714L57.8458 110.554L38 101.734V78.7263L57.1196 69.1665ZM57.22 73.5884L44.685 79.8559L57.78 85.6759L70.315 79.4084L57.22 73.5884ZM73 82.5381L59.8302 89.123V105.233L73 99.1544V82.5381ZM55.8302 105.281V89.1866L42 83.0399V99.1343L55.8302 105.281Z" fill="white"/>
<path fill-rule="evenodd" clip-rule="evenodd" d="M92.1878 69.1665L112 78.7057V101.714L92.8458 110.554L73 101.734V78.0224L92.1878 69.1665ZM77 82.4848V99.1344L90.8302 105.281V89.1438L77 82.4848ZM94.8302 89.1667V105.233L108 99.1545V83.0883L94.8302 89.1667ZM105.31 79.9242L92.8482 85.6759L79.6897 79.3404L92.1518 73.5886L105.31 79.9242Z" fill="white"/>
</svg>
