<svg width="150" height="150" viewBox="0 0 150 150" fill="none" xmlns="http://www.w3.org/2000/svg">
<rect x="2.5" y="2.5" width="145" height="145" rx="72.5" stroke="black" stroke-width="5"/>
<path d="M75.0003 89.5832C78.2087 89.5832 80.8337 86.9582 80.8337 83.7498C80.8337 80.5415 78.2087 77.9165 75.0003 77.9165C71.792 77.9165 69.167 80.5415 69.167 83.7498C69.167 86.9582 71.792 89.5832 75.0003 89.5832ZM92.5003 63.3332H89.5837V57.4998C89.5837 49.4498 83.0503 42.9165 75.0003 42.9165C67.2865 42.9165 60.9653 48.9156 60.4508 56.4997C60.4134 57.0507 60.8647 57.4998 61.417 57.4998H64.9587C65.5109 57.4998 65.9528 57.0504 66.0133 56.5014C66.5114 51.9824 70.3502 48.4582 75.0003 48.4582C79.9878 48.4582 84.042 52.5123 84.042 57.4998V63.3332H57.5003C54.292 63.3332 51.667 65.9582 51.667 69.1665V98.3332C51.667 101.542 54.292 104.167 57.5003 104.167H92.5003C95.7087 104.167 98.3337 101.542 98.3337 98.3332V69.1665C98.3337 65.9582 95.7087 63.3332 92.5003 63.3332ZM92.5003 98.3332H57.5003V69.1665H92.5003V98.3332Z" fill="black"/>
</svg>
