<svg xmlns="http://www.w3.org/2000/svg" viewBox="0 0 32 32" width="32" height="32"><title>transfer users_blue 2</title><rect data-element="frame" x="8" y="8" width="16" height="16" rx="1" ry="1" stroke="none" fill="#ffffff"/><g class="nc-icon-wrapper" fill="#004379"><g id="Outline_Icons_1_"><g id="Outline_Icons"><path fill="none" stroke="#004379" stroke-linecap="round" stroke-linejoin="round" stroke-miterlimit="10" d="M11.3 31.26h7.98"/><path fill="none" stroke="#004379" stroke-linecap="round" stroke-linejoin="round" stroke-miterlimit="10" d="M15.3 28.6v2.66"/><path fill="none" stroke="#004379" stroke-linejoin="round" stroke-miterlimit="10" d="M4.66 25.94h21.28"/><path fill="none" stroke="#004379" stroke-linecap="round" stroke-linejoin="round" stroke-miterlimit="10" d="M25.94 17.29v9.31c0 1.1-0.9 2-2 2h-17.29a2 2 0 0 1-2-2v-9.31"/><path fill="none" stroke="#004379" stroke-linecap="round" stroke-linejoin="round" stroke-miterlimit="10" d="M4.66 14.63v-3.33h3.32"/><path fill="none" stroke="#004379" stroke-linecap="round" stroke-linejoin="round" stroke-miterlimit="10" d="M3.99 0.67a2 2 0 1 0 0 3.99 2 2 0 1 0 0-4z"/><path fill="none" stroke="#004379" stroke-linecap="round" stroke-linejoin="round" stroke-miterlimit="10" d="M7.32 8.64h-6.66c0-2.2 1.49-3.99 3.33-3.99s3.33 1.79 3.33 3.99z"/><path fill="none" stroke="#004379" stroke-linecap="round" stroke-linejoin="round" stroke-miterlimit="10" d="M26.6 0.67a2 2 0 1 0 0 3.99 2 2 0 1 0 0-4z"/><path fill="none" stroke="#004379" stroke-linecap="round" stroke-linejoin="round" stroke-miterlimit="10" d="M29.93 8.64h-6.65c0-2.2 1.49-3.99 3.32-3.99s3.33 1.79 3.33 3.99z"/><path fill="none" stroke="#004379" stroke-linecap="round" stroke-linejoin="round" stroke-miterlimit="10" d="M15.3 0.67a2 2 0 1 0 0 3.99 2 2 0 1 0 0-4z"/><path fill="none" stroke="#004379" stroke-linecap="round" stroke-linejoin="round" stroke-miterlimit="10" d="M18.62 8.64h-6.65c0-2.2 1.49-3.99 3.33-3.99s3.33 1.79 3.32 3.99z"/><path fill="none" stroke="#004379" stroke-linecap="round" stroke-linejoin="round" stroke-miterlimit="10" d="M4.66 11.3l6.6 6.64"/><path fill="none" stroke="#004379" stroke-linecap="round" stroke-linejoin="round" stroke-miterlimit="10" d="M25.94 14.63v-3.33h-3.33"/><path fill="none" stroke="#004379" stroke-linecap="round" stroke-linejoin="round" stroke-miterlimit="10" d="M25.94 11.3l-6.61 6.64"/><path fill="none" stroke="#004379" stroke-linecap="round" stroke-linejoin="round" stroke-miterlimit="10" d="M15.3 17.93v-6.62"/><path fill="none" stroke="#004379" stroke-linecap="round" stroke-linejoin="round" stroke-miterlimit="10" d="M12.66 13.28l2.64-1.97 2.68 1.99"/></g></g><path fill="none" id="Invisible_Shape" d="M0 0h31.92v31.92h-31.92z"/></g></svg>