<?xml version="1.0" encoding="UTF-8"?>
<svg id="Ebene_1" data-name="Ebene 1" xmlns="http://www.w3.org/2000/svg" viewBox="0 0 189.5 98.88">
  <defs>
    <style>
      .cls-1 {
        fill: #fff;
      }
    </style>
  </defs>
  <g>
    <path class="cls-1" d="M6.48,15.26c0-2.52,1.94-4.46,4.46-4.46h15.41c11.81,0,19.15,6.7,19.15,16.85v.14c0,11.31-9.07,17.21-20.16,17.21h-10.01v12.17c0,2.45-1.94,4.39-4.39,4.39s-4.46-1.94-4.46-4.39V15.26ZM25.63,37c6.7,0,10.87-3.74,10.87-9v-.14c0-5.9-4.25-9-10.87-9h-10.3v18.15h10.3Z"/>
    <path class="cls-1" d="M50.98,14.97c0-2.45,1.94-4.46,4.46-4.46h.94c1.94,0,3.24,1.01,4.1,2.38l15.27,23.91,15.34-23.98c.94-1.51,2.23-2.3,4.03-2.3h.94c2.52,0,4.46,2.02,4.46,4.46v42.2c0,2.45-1.94,4.39-4.46,4.39-2.38,0-4.39-2.02-4.39-4.39v-30.24l-12.31,18.51c-.94,1.44-2.09,2.3-3.74,2.3s-2.74-.86-3.67-2.3l-12.24-18.36v30.17c0,2.45-1.94,4.32-4.39,4.32s-4.32-1.87-4.32-4.32V14.97Z"/>
    <path class="cls-1" d="M106.78,55.58c-1.01-.72-1.73-1.94-1.73-3.38,0-2.3,1.87-4.1,4.18-4.1,1.22,0,2.02.36,2.59.79,4.18,3.31,8.64,5.18,14.11,5.18s8.93-2.59,8.93-6.34v-.14c0-3.6-2.02-5.54-11.38-7.7-10.73-2.59-16.78-5.76-16.78-15.05v-.14c0-8.64,7.2-14.62,17.21-14.62,6.34,0,11.45,1.66,15.99,4.68,1.01.58,1.94,1.8,1.94,3.53,0,2.3-1.87,4.1-4.18,4.1-.86,0-1.58-.22-2.3-.65-3.89-2.52-7.63-3.82-11.59-3.82-5.18,0-8.21,2.66-8.21,5.98v.14c0,3.89,2.3,5.62,12.03,7.92,10.66,2.59,16.13,6.41,16.13,14.76v.14c0,9.43-7.42,15.05-18,15.05-6.84,0-13.32-2.16-18.94-6.34Z"/>
    <path class="cls-1" d="M148.75,15.26c0-2.52,1.94-4.46,4.46-4.46h29.38c2.23,0,4.03,1.8,4.03,4.03s-1.8,4.03-4.03,4.03h-24.99v13.75h21.75c2.23,0,4.03,1.8,4.03,4.03s-1.8,4.03-4.03,4.03h-21.75v16.49c0,2.45-1.94,4.39-4.39,4.39s-4.46-1.94-4.46-4.39V15.26Z"/>
  </g>
  <g>
    <path class="cls-1" d="M6.44,74.07c0-.92.73-1.65,1.67-1.65s1.65.73,1.65,1.65v15.87c0,.92-.73,1.65-1.65,1.65s-1.67-.73-1.67-1.65v-15.87Z"/>
    <path class="cls-1" d="M19.59,75.64h-4.59c-.86,0-1.54-.7-1.54-1.54s.67-1.54,1.54-1.54h12.55c.84,0,1.51.7,1.51,1.54s-.67,1.54-1.51,1.54h-4.62v14.31c0,.92-.76,1.65-1.67,1.65s-1.67-.73-1.67-1.65v-14.31Z"/>
    <path class="cls-1" d="M40.79,82.06v-.05c0-5.37,4.02-9.77,9.74-9.77,2.92,0,4.83.86,6.48,2.13.35.27.65.73.65,1.32,0,.92-.73,1.62-1.65,1.62-.46,0-.78-.16-1-.32-1.3-1.05-2.7-1.7-4.51-1.7-3.59,0-6.24,2.97-6.24,6.67v.05c0,3.7,2.62,6.69,6.24,6.69,2,0,3.35-.65,4.72-1.81.24-.22.59-.38,1-.38.84,0,1.57.7,1.57,1.54,0,.51-.24.92-.54,1.19-1.78,1.57-3.81,2.54-6.86,2.54-5.51,0-9.61-4.29-9.61-9.72Z"/>
    <path class="cls-1" d="M60.63,84.41v-.05c0-4.08,3.24-7.45,7.61-7.45s7.58,3.32,7.58,7.4v.05c0,4.05-3.24,7.42-7.64,7.42s-7.56-3.32-7.56-7.37ZM72.56,84.41v-.05c0-2.51-1.81-4.59-4.37-4.59s-4.29,2.05-4.29,4.53v.05c0,2.48,1.81,4.56,4.35,4.56s4.32-2.05,4.32-4.51Z"/>
    <path class="cls-1" d="M79.64,78.69c0-.92.7-1.65,1.62-1.65s1.65.73,1.65,1.65v.7c.92-1.32,2.24-2.48,4.45-2.48,3.21,0,5.07,2.16,5.07,5.45v7.61c0,.92-.7,1.62-1.62,1.62s-1.65-.7-1.65-1.62v-6.61c0-2.21-1.11-3.48-3.05-3.48s-3.21,1.32-3.21,3.54v6.56c0,.92-.73,1.62-1.65,1.62s-1.62-.7-1.62-1.62v-11.28Z"/>
    <path class="cls-1" d="M96.43,90.02c-.35-.19-.62-.59-.62-1.13,0-.73.57-1.32,1.32-1.32.27,0,.51.08.7.19,1.38.92,2.81,1.38,4.1,1.38,1.4,0,2.21-.59,2.21-1.54v-.05c0-1.11-1.51-1.48-3.19-2-2.11-.59-4.45-1.46-4.45-4.18v-.05c0-2.7,2.24-4.35,5.07-4.35,1.51,0,3.1.43,4.48,1.16.46.24.78.67.78,1.24,0,.76-.59,1.32-1.35,1.32-.27,0-.43-.05-.65-.16-1.16-.59-2.35-.97-3.35-.97-1.27,0-2,.59-2,1.4v.05c0,1.05,1.54,1.48,3.21,2.02,2.08.65,4.43,1.59,4.43,4.16v.05c0,3-2.32,4.48-5.29,4.48-1.81,0-3.78-.57-5.43-1.7Z"/>
    <path class="cls-1" d="M123.64,89.97c0,.89-.73,1.62-1.65,1.62s-1.65-.7-1.65-1.62v-.73c-.92,1.35-2.24,2.51-4.45,2.51-3.21,0-5.07-2.16-5.07-5.48v-7.58c0-.92.73-1.65,1.62-1.65s1.65.73,1.65,1.65v6.61c0,2.21,1.11,3.46,3.05,3.46s3.21-1.3,3.21-3.51v-6.56c0-.92.73-1.65,1.65-1.65s1.65.73,1.65,1.65v11.28Z"/>
    <path class="cls-1" d="M128.34,73.24c0-.89.7-1.62,1.62-1.62s1.65.73,1.65,1.62v16.74c0,.92-.73,1.62-1.65,1.62s-1.62-.7-1.62-1.62v-16.74Z"/>
    <path class="cls-1" d="M136.88,87.51v-7.5h-.54c-.78,0-1.4-.62-1.4-1.4s.62-1.4,1.4-1.4h.54v-2.43c0-.89.73-1.62,1.65-1.62s1.62.73,1.62,1.62v2.43h2.56c.78,0,1.43.62,1.43,1.4s-.65,1.4-1.43,1.4h-2.56v6.99c0,1.27.65,1.78,1.75,1.78.38,0,.7-.08.81-.08.73,0,1.38.59,1.38,1.35,0,.59-.41,1.08-.86,1.27-.7.24-1.38.38-2.24.38-2.4,0-4.1-1.05-4.1-4.18Z"/>
    <path class="cls-1" d="M147.26,73.37c0-.97.81-1.59,1.86-1.59s1.86.62,1.86,1.59v.16c0,.97-.81,1.62-1.86,1.62s-1.86-.65-1.86-1.62v-.16ZM147.5,78.69c0-.92.7-1.65,1.62-1.65s1.65.73,1.65,1.65v11.28c0,.92-.73,1.62-1.65,1.62s-1.62-.7-1.62-1.62v-11.28Z"/>
    <path class="cls-1" d="M155.42,78.69c0-.92.7-1.65,1.62-1.65s1.65.73,1.65,1.65v.7c.92-1.32,2.24-2.48,4.45-2.48,3.21,0,5.07,2.16,5.07,5.45v7.61c0,.92-.7,1.62-1.62,1.62s-1.65-.7-1.65-1.62v-6.61c0-2.21-1.11-3.48-3.05-3.48s-3.21,1.32-3.21,3.54v6.56c0,.92-.73,1.62-1.65,1.62s-1.62-.7-1.62-1.62v-11.28Z"/>
    <path class="cls-1" d="M173.42,94.56c-.57-.22-.92-.67-.92-1.3,0-.73.62-1.35,1.38-1.35.24,0,.43.05.59.13,1.29.73,2.73,1.13,4.37,1.13,2.92,0,4.51-1.51,4.51-4.37v-1.11c-1.19,1.54-2.67,2.62-5.02,2.62-3.35,0-6.48-2.48-6.48-6.67v-.05c0-4.21,3.16-6.69,6.48-6.69,2.4,0,3.89,1.11,4.99,2.43v-.67c0-.89.73-1.62,1.62-1.62s1.65.73,1.65,1.65v9.85c0,2.4-.62,4.18-1.81,5.37-1.29,1.3-3.29,1.92-5.86,1.92-2,0-3.78-.43-5.51-1.27ZM183.38,83.63v-.05c0-2.32-1.92-3.91-4.18-3.91s-4.05,1.57-4.05,3.91v.05c0,2.32,1.81,3.91,4.05,3.91s4.18-1.59,4.18-3.91Z"/>
  </g>
</svg>