<?xml version="1.0" encoding="UTF-8" standalone="no"?>
<!-- Created with Inkscape (http://www.inkscape.org/) -->

<svg
   version="1.1"
   id="svg182"
   xml:space="preserve"
   width="535.61499"
   height="150.18401"
   viewBox="0 0 535.76804 150.22708"
   sodipodi:docname="SSP-Traceability.svg"
   inkscape:version="1.4 (86a8ad7, 2024-10-11)"
   xmlns:inkscape="http://www.inkscape.org/namespaces/inkscape"
   xmlns:sodipodi="http://sodipodi.sourceforge.net/DTD/sodipodi-0.dtd"
   xmlns="http://www.w3.org/2000/svg"
   xmlns:svg="http://www.w3.org/2000/svg"
   xmlns:rdf="http://www.w3.org/1999/02/22-rdf-syntax-ns#"
   xmlns:cc="http://creativecommons.org/ns#"
   xmlns:dc="http://purl.org/dc/elements/1.1/"><metadata
     id="metadata188"><rdf:RDF><cc:Work
         rdf:about=""><dc:format>image/svg+xml</dc:format><dc:type
           rdf:resource="http://purl.org/dc/dcmitype/StillImage" /></cc:Work></rdf:RDF></metadata><defs
     id="defs186"><rect
       x="331.90906"
       y="98.997627"
       width="304.3869"
       height="63.259892"
       id="rect1" /></defs><sodipodi:namedview
     pagecolor="#ffffff"
     bordercolor="#666666"
     borderopacity="1"
     objecttolerance="10"
     gridtolerance="10"
     guidetolerance="10"
     inkscape:pageopacity="0"
     inkscape:pageshadow="2"
     inkscape:window-width="2560"
     inkscape:window-height="1378"
     id="namedview184"
     showgrid="false"
     fit-margin-top="2"
     fit-margin-right="2"
     fit-margin-left="2"
     fit-margin-bottom="2"
     inkscape:zoom="2.4344018"
     inkscape:cx="344.84858"
     inkscape:cy="77.226364"
     inkscape:window-x="2553"
     inkscape:window-y="-6"
     inkscape:window-maximized="1"
     inkscape:current-layer="g190"
     inkscape:showpageshadow="2"
     inkscape:pagecheckerboard="0"
     inkscape:deskcolor="#d1d1d1"
     showguides="true"><sodipodi:guide
       position="641.40851,13.809492"
       orientation="0,-1"
       id="guide1"
       inkscape:locked="false" /></sodipodi:namedview><g
     id="g190"
     inkscape:groupmode="layer"
     inkscape:label="ink_ext_XXXXXX"
     transform="matrix(1.3333333,0,0,-1.3333333,2,137.184)"><path
       d="M 0,0.541016 V 9.3832 l 113.89,0.05469 7.034,-6.30664 7.038,6.30664 47.57386,-0.05469 -0.004,-8.842184 H 0"
       style="fill:#cc193a;fill-opacity:1;fill-rule:nonzero;stroke:none;stroke-width:0.1"
       id="path194"
       inkscape:connector-curvature="0"
       sodipodi:nodetypes="cccccccc" /><path
       d="m 1.79297,39.4398 v 11.002 H 32.7 c 3.9801,0 7.2172,3.2336 7.2172,7.2129 0,3.9801 -3.2371,7.2172 -7.2172,7.2172 H 18.348 c -10.04487,0 -18.215187,8.1707 -18.215187,18.2148 0,10.0449 8.170317,18.2193 18.215187,18.2193 l 36.0274,0.074 C 49.9035,96.9711 47.8184,92.1832 47.123,90.3043 H 18.348 c -3.98,0 -7.2132,-3.2375 -7.2132,-7.2176 0,-3.9793 3.2332,-7.2168 7.2132,-7.2168 L 32.7,75.8738 c 10.0449,0 18.2191,-8.1742 18.2191,-18.2191 0,-10.0449 -8.1742,-18.2149 -18.2191,-18.2149 H 1.79297"
       style="fill:#2a3741;fill-opacity:1;fill-rule:nonzero;stroke:none;stroke-width:0.1"
       id="path196"
       inkscape:connector-curvature="0" /><path
       d="m 53.6609,39.4398 c 1.9879,2.4836 5.2211,6.9758 6.1586,11.002 h 31.0993 c 3.9796,0 7.2132,3.2336 7.2132,7.2129 0,3.9801 -3.2336,7.2172 -7.2132,7.2172 H 76.566 c -10.0445,0 -18.2183,8.1707 -18.2183,18.2148 0,10.0449 8.1738,18.2193 18.2183,18.2193 l 40.695,0.074 c -2.16,-2.1905 -5.393,-6.0495 -7.307,-11.0757 H 76.566 c -3.9793,0 -7.2172,-3.2375 -7.2172,-7.2176 0,-3.9793 3.2379,-7.2168 7.2172,-7.2168 l 14.3528,0.0039 c 10.0442,0 18.2152,-8.1742 18.2152,-18.2191 0,-10.0449 -8.171,-18.2149 -18.2152,-18.2149 H 53.6609"
       style="fill:#2a3741;fill-opacity:1;fill-rule:nonzero;stroke:none;stroke-width:0.1"
       id="path198"
       inkscape:connector-curvature="0" /><path
       d="m 142.666,90.6285 c -8.947,0 -16.227,-7.2801 -16.227,-16.2312 v -8.0528 c 0,-8.9515 7.28,-16.2308 16.227,-16.2308 h 2.749 c 8.948,0 16.227,7.2793 16.227,16.2308 v 8.0528 c 0,8.9511 -7.279,16.2312 -16.227,16.2312 z M 115.679,14.148 v 60.2493 c 0,14.884 12.107,26.9907 26.987,26.9907 h 2.749 c 14.88,0 26.987,-12.1067 26.987,-26.9907 v -8.0528 c 0,-14.88 -12.107,-26.9867 -26.987,-26.9867 h -2.749 c -5.124,0 -10.131,1.4727 -14.486,4.257 l -1.741,1.1133 V 14.148 l -5.382,-5.06167 -5.378,5.06167"
       style="fill:#2a3741;fill-opacity:1;fill-rule:nonzero;stroke:none;stroke-width:0.1"
       id="path200"
       inkscape:connector-curvature="0" /><g
       id="g13"
       transform="translate(7.5021515)"
       style="fill:#2a3741;fill-opacity:1"><text
         style="font-size:53.3486px;font-family:'Nirmala UI';-inkscape-font-specification:'Nirmala UI, Normal';white-space:pre;stroke:#000000;stroke-width:0.389291;fill:#2a3741;fill-opacity:1"
         transform="matrix(0.75000002,0,0,-0.75000002,-62.242824,110.89818)"
         x="331.9082"
         y="147.05203"
         id="text13">T</text><text
         style="font-size:40.0115px;font-family:'Nirmala UI';-inkscape-font-specification:'Nirmala UI, Normal';white-space:pre;stroke:#000000;stroke-width:0.291968;fill:#2a3741;fill-opacity:1"
         transform="scale(1,-1)"
         x="206.55833"
         y="-0.60915273"
         id="text12">r</text><text
         style="font-size:40.0115px;font-family:'Nirmala UI';-inkscape-font-specification:'Nirmala UI, Normal';white-space:pre;stroke:#000000;stroke-width:0.291968;fill:#2a3741;fill-opacity:1"
         transform="scale(1,-1)"
         x="220.77672"
         y="-0.60915273"
         id="text11">a</text><text
         style="font-size:40.0115px;font-family:'Nirmala UI';-inkscape-font-specification:'Nirmala UI, Normal';white-space:pre;stroke:#000000;stroke-width:0.291968;fill:#2a3741;fill-opacity:1"
         transform="scale(1,-1)"
         x="241.44229"
         y="-0.60915273"
         id="text10">c</text><text
         style="font-size:40.0115px;font-family:'Nirmala UI';-inkscape-font-specification:'Nirmala UI, Normal';white-space:pre;stroke:#000000;stroke-width:0.291968;fill:#2a3741;fill-opacity:1"
         transform="scale(1,-1)"
         x="260.2323"
         y="-0.60915273"
         id="text9">e</text><text
         style="font-size:40.0115px;font-family:'Nirmala UI';-inkscape-font-specification:'Nirmala UI, Normal';white-space:pre;stroke:#000000;stroke-width:0.291968;fill:#2a3741;fill-opacity:1"
         transform="scale(1,-1)"
         x="281.46442"
         y="-0.60915273"
         id="text8">a</text><text
         style="font-size:40.0115px;font-family:'Nirmala UI';-inkscape-font-specification:'Nirmala UI, Normal';white-space:pre;stroke:#000000;stroke-width:0.291968;fill:#2a3741;fill-opacity:1"
         transform="scale(1,-1)"
         x="302.12997"
         y="-0.60915273"
         id="text7">b</text><text
         style="font-size:40.0115px;font-family:'Nirmala UI';-inkscape-font-specification:'Nirmala UI, Normal';white-space:pre;stroke:#000000;stroke-width:0.291968;fill:#2a3741;fill-opacity:1"
         transform="scale(1,-1)"
         x="326.53644"
         y="-0.60915273"
         id="text6">i</text><text
         style="font-size:40.0115px;font-family:'Nirmala UI';-inkscape-font-specification:'Nirmala UI, Normal';white-space:pre;stroke:#000000;stroke-width:0.291968;fill:#2a3741;fill-opacity:1"
         transform="scale(1,-1)"
         x="336.53485"
         y="-0.60915273"
         id="text5">l</text><text
         style="font-size:40.0115px;font-family:'Nirmala UI';-inkscape-font-specification:'Nirmala UI, Normal';white-space:pre;stroke:#000000;stroke-width:0.291968;fill:#2a3741;fill-opacity:1"
         transform="scale(1,-1)"
         x="346.53333"
         y="-0.60915273"
         id="text4">i</text><text
         style="font-size:40.0115px;font-family:'Nirmala UI';-inkscape-font-specification:'Nirmala UI, Normal';white-space:pre;stroke:#000000;stroke-width:0.291968;fill:#2a3741;fill-opacity:1"
         transform="scale(1,-1)"
         x="356.53177"
         y="-0.60915273"
         id="text3">t</text><text
         style="font-size:40.0115px;font-family:'Nirmala UI';-inkscape-font-specification:'Nirmala UI, Normal';white-space:pre;stroke:#000000;stroke-width:0.291968;fill:#2a3741;fill-opacity:1"
         transform="scale(1,-1)"
         x="371.85849"
         y="-0.60915273"
         id="text2">y</text></g></g></svg>
