<svg width="273" height="50" viewBox="0 0 273 50" fill="none" xmlns="http://www.w3.org/2000/svg">
<g clip-path="url(#clip0_895_79)">
<g clip-path="url(#clip1_895_79)">
<mask id="mask0_895_79" style="mask-type:luminance" maskUnits="userSpaceOnUse" x="0" y="0" width="273" height="50">
<path d="M273 0H0V50H273V0Z" fill="white"/>
</mask>
<g mask="url(#mask0_895_79)">
<path d="M16.3199 8.33312C16.3199 9.80356 16.3199 29.4161 16.3199 32.7714C16.3199 32.8463 16.2116 32.8538 16.1965 32.7814L12.2469 11.6011C12.2041 11.3864 11.9348 11.3015 11.7787 11.4563C9.55093 13.6307 8.07329 16.1372 7.32817 18.1694C7.31558 18.2018 7.31055 18.2343 7.31055 18.2668V31.7404C7.31055 31.7728 7.31558 31.8078 7.32817 31.8378C7.87945 33.3556 8.78568 34.8885 9.92853 36.4313C10.0871 36.646 10.4319 36.5362 10.4319 36.269V20.5985C10.4319 20.3988 10.7189 20.3688 10.7642 20.5635L14.5729 40.7028C14.5905 40.7802 14.6434 40.8401 14.7088 40.8851C15.8592 41.659 17.9385 42.725 19.2576 43.072C19.4388 43.1195 19.615 42.9921 19.615 42.8049L19.61 7.2072C19.61 7.01996 19.4212 6.88515 19.2425 6.94506C18.233 7.2771 17.3092 7.65906 16.4684 8.09096C16.3753 8.13839 16.3174 8.23076 16.3174 8.33562L16.3199 8.33312Z" fill="white"/>
<path d="M41.5172 34.9886C42.2271 33.8677 42.8413 32.5271 43.3826 31.0167C43.4002 30.9642 43.4052 30.9093 43.3901 30.8544L38.5166 11.3966C38.504 11.3417 38.4738 11.2943 38.431 11.2568C37.4518 10.3831 36.4852 9.59418 35.5588 9.01C34.5595 8.37839 33.5853 7.85911 32.6438 7.47715C32.4626 7.40475 32.2637 7.54206 32.2637 7.73429V42.2559C32.2637 42.4507 32.4651 42.5905 32.6463 42.5131C33.5324 42.1436 34.4613 41.6543 35.4254 41.0701C35.5085 41.0202 35.5613 40.9278 35.5613 40.8329V26.9798C35.5613 26.8275 35.6847 26.7052 35.8382 26.7052L38.7231 26.6877C38.8514 26.6877 38.9622 26.7726 38.9949 26.8974L41.0138 34.9112C41.0742 35.1484 41.3914 35.1983 41.5223 34.9911L41.5172 34.9886ZM35.5588 23.1602V14.4998C35.5588 14.3051 35.8408 14.2701 35.8861 14.4599L38.0333 23.0803C38.0761 23.2525 37.9452 23.4198 37.7665 23.4223L35.8382 23.4373C35.6847 23.4373 35.5588 23.315 35.5588 23.1627V23.1602Z" fill="white"/>
<path d="M22.2178 6.4736V43.5292C22.2178 43.6665 22.3185 43.7838 22.4569 43.8038C23.4462 43.9461 24.4657 44.011 25.5129 43.9985C27.119 43.9461 28.5639 43.8163 29.7873 43.4643C29.9056 43.4293 29.9861 43.3195 29.9861 43.1972V40.4185C29.9861 40.2438 29.8276 40.1165 29.6564 40.1514C28.4028 40.3986 27.119 40.5459 25.8049 40.6033C25.6463 40.6108 25.5129 40.4835 25.5129 40.3262V26.9075C25.5129 26.7552 25.6363 26.6329 25.7898 26.6329H29.7067C29.8603 26.6329 29.9836 26.5105 29.9836 26.3582V23.642C29.9836 23.4898 29.8603 23.3674 29.7067 23.3674H25.7898C25.6363 23.3674 25.5129 23.2451 25.5129 23.0928V9.74402C25.5129 9.58924 25.6388 9.46192 25.7949 9.46441C27.046 9.48438 28.3348 9.62169 29.6564 9.86385C29.8276 9.89631 29.9861 9.76649 29.9861 9.59673V6.82061C29.9861 6.69329 29.898 6.58095 29.7747 6.55099C28.3575 6.19898 26.9377 6.03422 25.5129 6.01175C24.5287 5.98928 23.5066 6.06417 22.4594 6.20647C22.321 6.22395 22.2178 6.34378 22.2178 6.48109V6.4736Z" fill="white"/>
<path d="M25.2081 2.62133C37.6712 2.62133 47.7756 12.6423 47.7756 25.0025C47.7756 37.3627 37.6712 47.3837 25.2081 47.3837C12.745 47.3837 2.64315 37.3602 2.64315 25C2.64315 12.6398 12.745 2.62133 25.2081 2.62133ZM25.2081 0C21.8073 0 18.5046 0.661574 15.3957 1.96475C12.3926 3.22299 9.69911 5.02546 7.38321 7.32225C5.06982 9.61654 3.25234 12.2903 1.98111 15.2686C0.667082 18.3518 0 21.6272 0 25C0 28.3728 0.667082 31.6482 1.98111 34.7314C3.24982 37.7097 5.0673 40.381 7.38321 42.6777C9.6966 44.972 12.3926 46.7745 15.3957 48.0353C18.5046 49.3384 21.8073 50 25.2081 50C28.609 50 31.9117 49.3384 35.0205 48.0353C38.0236 46.777 40.7171 44.9745 43.0331 42.6777C45.3464 40.3835 47.1639 37.7097 48.4352 34.7314C49.7492 31.6482 50.4163 28.3728 50.4163 25C50.4163 21.6272 49.7492 18.3518 48.4352 15.2686C47.1664 12.2903 45.349 9.61903 43.0331 7.32225C40.7197 5.02796 38.0236 3.22548 35.0205 1.96475C31.9117 0.661574 28.6115 0 25.2081 0Z" fill="white"/>
<path d="M69.9429 29.3214L62.4892 13.6583C62.4565 13.5884 62.386 13.5435 62.3079 13.5435H59.2092C59.0984 13.5435 59.0078 13.6333 59.0078 13.7432V36.6461C59.0078 36.756 59.0984 36.8458 59.2092 36.8458H62.25C62.3608 36.8458 62.4514 36.756 62.4514 36.6461V21.6296C62.4514 21.4174 62.7409 21.3525 62.8341 21.5423L70.2399 36.7335C70.2726 36.8034 70.3431 36.8458 70.4212 36.8458H73.5703C73.6811 36.8458 73.7717 36.756 73.7717 36.6461V13.7457C73.7717 13.6358 73.6811 13.546 73.5703 13.546H70.5294C70.4186 13.546 70.328 13.6358 70.328 13.7457V29.2365C70.328 29.4487 70.036 29.5136 69.9454 29.3214H69.9429Z" fill="white"/>
<path d="M78.9599 13.5459H77.5276C77.4168 13.5459 77.3262 13.6358 77.3262 13.7456V36.6661C77.3262 36.7759 77.4168 36.8658 77.5276 36.8658H90.0133C90.1241 36.8658 90.2147 36.7759 90.2147 36.6661V33.6328C90.2147 33.523 90.1241 33.4331 90.0133 33.4331H81.1172C81.0065 33.4331 80.9158 33.3432 80.9158 33.2334V27.2018C80.9158 27.092 81.0065 27.0021 81.1172 27.0021H88.7043C88.8151 27.0021 88.9057 26.9122 88.9057 26.8024V23.7691C88.9057 23.6593 88.8151 23.5694 88.7043 23.5694H81.1172C81.0065 23.5694 80.9158 23.4795 80.9158 23.3697V17.1783C80.9158 17.0685 81.0065 16.9786 81.1172 16.9786H90.0133C90.1241 16.9786 90.2147 16.8887 90.2147 16.7789V13.7456C90.2147 13.6358 90.1241 13.5459 90.0133 13.5459H78.9599Z" fill="white"/>
<path d="M102.889 30.0004C102.889 31.1338 102.592 32.0101 102.001 32.6292C101.406 33.2483 100.571 33.5604 99.4937 33.5604C98.4163 33.5604 97.5982 33.2508 97.0117 32.6292C96.4252 32.0101 96.1306 31.1338 96.1306 30.0004V13.7456C96.1306 13.6358 96.04 13.5459 95.9293 13.5459H92.7248C92.614 13.5459 92.5234 13.6358 92.5234 13.7456V29.888C92.5234 31.4059 92.7927 32.7066 93.3314 33.7851C93.8701 34.8661 94.6631 35.6874 95.7077 36.2541C96.7524 36.8208 98.0136 37.1029 99.4912 37.1029C100.968 37.1029 102.23 36.8208 103.274 36.2541C104.319 35.6874 105.117 34.8636 105.668 33.7851C106.217 32.7041 106.494 31.4059 106.494 29.888V13.7456C106.494 13.6358 106.403 13.5459 106.293 13.5459H103.088C102.977 13.5459 102.887 13.6358 102.887 13.7456V30.0004H102.889Z" fill="white"/>
<path d="M118.527 27.7161L113.555 13.6782C113.527 13.5983 113.452 13.5459 113.366 13.5459H109.99C109.88 13.5459 109.789 13.6358 109.789 13.7456V36.6661C109.789 36.7759 109.88 36.8658 109.99 36.8658H112.968C113.079 36.8658 113.17 36.7759 113.17 36.6661V22.6607C113.17 22.436 113.484 22.3835 113.56 22.5933L117.424 33.2858C117.452 33.3657 117.527 33.4181 117.613 33.4181H119.803C119.888 33.4181 119.964 33.3657 119.992 33.2833L123.919 22.1364C123.994 21.9242 124.309 21.9766 124.309 22.2013V36.6661C124.309 36.7759 124.399 36.8658 124.51 36.8658H127.44C127.551 36.8658 127.642 36.7759 127.642 36.6661V13.7456C127.642 13.6358 127.551 13.5459 127.44 13.5459H124.097C124.012 13.5459 123.936 13.5983 123.909 13.6782L118.907 27.7186C118.844 27.8958 118.589 27.8958 118.527 27.7186V27.7161Z" fill="white"/>
<path d="M136.636 13.6857L129.547 36.6061C129.507 36.7335 129.605 36.8633 129.739 36.8633H133.144C133.235 36.8633 133.316 36.8034 133.338 36.716L134.501 32.4869C134.524 32.3995 134.604 32.3396 134.695 32.3396H141.487C141.577 32.3396 141.658 32.3995 141.681 32.4869L142.846 36.716C142.871 36.8034 142.949 36.8633 143.04 36.8633H146.431C146.567 36.8633 146.662 36.7335 146.622 36.6061L139.533 13.6857C139.508 13.6008 139.43 13.5459 139.342 13.5459H136.825C136.737 13.5459 136.659 13.6033 136.633 13.6857H136.636ZM135.546 28.6897L137.892 20.1517C137.945 19.9569 138.227 19.9544 138.28 20.1517L140.633 28.6897C140.669 28.817 140.573 28.9419 140.44 28.9419H135.74C135.606 28.9419 135.511 28.817 135.546 28.6897Z" fill="white"/>
<path d="M159.483 29.3214L152.029 13.6583C151.996 13.5884 151.926 13.5435 151.848 13.5435H148.749C148.638 13.5435 148.548 13.6333 148.548 13.7432V36.6461C148.548 36.756 148.638 36.8458 148.749 36.8458H151.79C151.901 36.8458 151.991 36.756 151.991 36.6461V21.6296C151.991 21.4174 152.281 21.3525 152.374 21.5423L159.78 36.7335C159.813 36.8034 159.883 36.8458 159.961 36.8458H163.11C163.221 36.8458 163.312 36.756 163.312 36.6461V13.7457C163.312 13.6358 163.221 13.546 163.11 13.546H160.069C159.959 13.546 159.868 13.6358 159.868 13.7457V29.2365C159.868 29.4487 159.576 29.5136 159.485 29.3214H159.483Z" fill="white"/>
<path d="M186.116 32.4197C186.649 31.6532 187.085 30.7121 187.422 29.5961C187.76 28.4802 187.928 27.167 187.928 25.6591H184.271C184.271 26.8799 184.067 27.9909 183.659 28.9895C183.541 29.2816 183.407 29.5587 183.264 29.8283L178.858 24.7105L180.376 23.607C181.381 22.883 182.164 22.0767 182.728 21.1879C183.291 20.2966 183.573 19.2881 183.573 18.1621C183.573 17.191 183.327 16.2923 182.833 15.4684C182.34 14.6446 181.638 13.983 180.729 13.4862C179.82 12.9894 178.73 12.7397 177.459 12.7397C176.188 12.7397 175.08 12.9969 174.136 13.5086C173.192 14.0229 172.457 14.7244 171.931 15.6132C171.405 16.5045 171.143 17.513 171.143 18.639C171.143 19.6351 171.349 20.5588 171.76 21.4101C172.173 22.2614 172.701 23.0802 173.348 23.8641C173.441 23.9765 173.534 24.0888 173.627 24.2012C172.764 24.7904 172.001 25.382 171.337 25.9762C170.634 26.6053 170.086 27.2894 169.69 28.0283C169.295 28.7673 169.096 29.6136 169.096 30.5698C169.096 31.838 169.416 32.9739 170.055 33.9825C170.695 34.9886 171.606 35.7875 172.789 36.3791C173.972 36.9708 175.39 37.2654 177.036 37.2654C178.126 37.2654 179.236 37.0856 180.369 36.7286C181.444 36.3891 182.388 35.8648 183.206 35.1608L184.749 36.9134H189.358L185.826 32.8091C185.922 32.6818 186.018 32.5545 186.113 32.4172L186.116 32.4197ZM175.266 17.4856C175.483 17.1036 175.785 16.7965 176.172 16.5594C176.56 16.3222 177.008 16.2049 177.519 16.2049C178.279 16.2049 178.879 16.4346 179.312 16.8939C179.747 17.3533 179.964 17.8376 179.964 18.3519C179.964 18.9585 179.8 19.4878 179.475 19.9371C179.15 20.389 178.672 20.8159 178.045 21.2204L176.686 22.1391C176.636 22.0791 176.585 22.0167 176.535 21.9568C176.062 21.3826 175.677 20.8259 175.382 20.2892C175.088 19.7524 174.942 19.2231 174.942 18.7039C174.942 18.277 175.05 17.8725 175.264 17.4906L175.266 17.4856ZM179.717 33.2136C178.879 33.598 178.028 33.7903 177.164 33.7903C176.381 33.7903 175.697 33.638 175.113 33.3284C174.529 33.0213 174.076 32.6119 173.753 32.0976C173.431 31.5833 173.27 31.0116 173.27 30.3825C173.27 29.9706 173.441 29.4713 173.789 28.8846C174.133 28.2979 174.705 27.7163 175.505 27.1421L175.896 26.86L180.89 32.532C180.517 32.7991 180.125 33.0263 179.717 33.2136Z" fill="white"/>
<path d="M195.596 13.546H194.164C194.053 13.546 193.962 13.6358 193.962 13.7457V36.6661C193.962 36.7759 194.053 36.8658 194.164 36.8658H206.649C206.76 36.8658 206.851 36.7759 206.851 36.6661V33.6328C206.851 33.523 206.76 33.4331 206.649 33.4331H197.753C197.642 33.4331 197.552 33.3432 197.552 33.2334V27.2018C197.552 27.092 197.642 27.0021 197.753 27.0021H205.34C205.451 27.0021 205.542 26.9122 205.542 26.8024V23.7691C205.542 23.6593 205.451 23.5694 205.34 23.5694H197.753C197.642 23.5694 197.552 23.4795 197.552 23.3697V17.1759C197.552 17.066 197.642 16.9762 197.753 16.9762H206.649C206.76 16.9762 206.851 16.8863 206.851 16.7764V13.7432C206.851 13.6333 206.76 13.5435 206.649 13.5435H195.596V13.546Z" fill="white"/>
<path d="M220.391 24.7553C219.608 24.3608 218.621 23.9863 217.423 23.6318C217.37 23.6218 216.895 23.4671 216.842 23.4546C215.893 23.1875 215.153 22.9403 214.619 22.7181C214.085 22.4934 213.635 22.1764 213.27 21.7644C212.902 21.3525 212.721 20.8158 212.721 20.1517V19.4452C212.721 18.5889 213.023 17.9273 213.627 17.4555C214.314 16.9187 215.339 16.689 216.701 16.7639C216.713 16.7639 216.728 16.7664 216.744 16.7689C218.032 17.0386 218.954 17.9248 219.505 19.4227C219.545 19.5351 219.674 19.59 219.782 19.5376L222.692 18.1071C222.78 18.0646 222.825 17.9598 222.798 17.8674C222.506 16.9137 222.078 16.1024 221.511 15.4333C220.912 14.7268 220.177 14.195 219.304 13.838C218.43 13.481 217.438 13.3013 216.328 13.3013C214.808 13.3013 213.514 13.5435 212.447 14.0303C211.379 14.5171 210.564 15.2311 209.997 16.1723C209.431 17.1135 209.149 18.2469 209.149 19.5725V20.1991C209.149 21.6321 209.438 22.7705 210.015 23.6144C210.591 24.4582 211.291 25.0723 212.117 25.4518C212.942 25.8313 214.012 26.2032 215.326 26.5652C215.326 26.5652 215.457 26.6077 215.633 26.6626C216.517 26.9097 217.222 27.1469 217.743 27.3766C218.267 27.6063 218.702 27.9183 219.052 28.3153C219.402 28.7097 219.578 29.229 219.578 29.8706V30.8642C219.578 31.7305 219.258 32.4095 218.616 32.9014C217.975 33.3932 217.083 33.6378 215.941 33.6378C214.971 33.6378 214.143 33.3757 213.459 32.8514C212.824 32.3671 212.358 31.6831 212.064 30.8043C212.026 30.6919 211.9 30.632 211.792 30.682L208.726 32.0725C208.635 32.115 208.588 32.2173 208.615 32.3122C208.91 33.3183 209.365 34.1696 209.982 34.8611C210.634 35.5926 211.455 36.1493 212.439 36.5288C213.426 36.9082 214.561 37.098 215.842 37.098C217.373 37.098 218.689 36.8533 219.787 36.3615C220.887 35.8697 221.723 35.1557 222.294 34.2195C222.866 33.2833 223.15 32.1599 223.15 30.8442V29.8331C223.15 28.4751 222.886 27.3866 222.357 26.5702C221.829 25.7514 221.174 25.1447 220.394 24.7503L220.391 24.7553Z" fill="white"/>
<path d="M244.341 13.546H242.908C242.798 13.546 242.707 13.6358 242.707 13.7457V36.6661C242.707 36.7759 242.798 36.8658 242.908 36.8658H255.394C255.505 36.8658 255.595 36.7759 255.595 36.6661V33.6328C255.595 33.523 255.505 33.4331 255.394 33.4331H246.498C246.387 33.4331 246.297 33.3432 246.297 33.2334V27.2018C246.297 27.092 246.387 27.0021 246.498 27.0021H254.085C254.196 27.0021 254.286 26.9122 254.286 26.8024V23.7691C254.286 23.6593 254.196 23.5694 254.085 23.5694H246.498C246.387 23.5694 246.297 23.4795 246.297 23.3697V17.1759C246.297 17.066 246.387 16.9762 246.498 16.9762H255.394C255.505 16.9762 255.595 16.8863 255.595 16.7764V13.7432C255.595 13.6333 255.505 13.5435 255.394 13.5435H244.341V13.546Z" fill="white"/>
<path d="M269.101 36.8631H272.799C272.945 36.8631 273.04 36.7158 272.982 36.5835L268.655 26.8646C268.61 26.7623 268.66 26.6424 268.766 26.6025C268.95 26.5301 269.131 26.4477 269.305 26.3603C270.264 25.8685 270.996 25.1545 271.505 24.2183C272.011 23.2822 272.265 22.1837 272.265 20.923V19.6248C272.265 18.384 272.008 17.3055 271.497 16.3843C270.986 15.4656 270.251 14.7591 269.297 14.2673C268.343 13.7755 267.22 13.5308 265.926 13.5308H258.382C258.271 13.5308 258.181 13.6207 258.181 13.7305V36.6659C258.181 36.7758 258.271 36.8656 258.382 36.8656H261.554C261.665 36.8656 261.755 36.7758 261.755 36.6659V27.2965C261.755 27.1867 261.846 27.0968 261.957 27.0968H264.723C264.804 27.0968 264.877 27.1442 264.909 27.2191L268.917 36.7408C268.947 36.8157 269.02 36.8631 269.103 36.8631H269.101ZM261.755 17.1607C261.755 17.0509 261.846 16.961 261.957 16.961H266.009C266.528 16.961 266.976 17.0733 267.359 17.298C267.741 17.5227 268.036 17.8498 268.24 18.2767C268.444 18.7036 268.547 19.2004 268.547 19.7671V20.9379C268.537 21.4947 268.431 21.979 268.232 22.3884C268.033 22.8003 267.741 23.1174 267.359 23.3421C266.976 23.5668 266.526 23.6791 266.009 23.6791H261.957C261.846 23.6791 261.755 23.5892 261.755 23.4794V17.1582V17.1607Z" fill="white"/>
<path d="M237.028 24.7553C236.245 24.3608 235.258 23.9863 234.06 23.6318C234.007 23.6218 233.531 23.4671 233.479 23.4546C232.53 23.1875 231.789 22.9403 231.256 22.7181C230.722 22.4934 230.272 22.1764 229.907 21.7644C229.539 21.3525 229.358 20.8158 229.358 20.1517V19.4452C229.358 18.5889 229.66 17.9273 230.264 17.4555C230.951 16.9187 231.976 16.689 233.338 16.7639C233.35 16.7639 233.365 16.7664 233.38 16.7689C234.669 17.0386 235.591 17.9248 236.142 19.4227C236.182 19.5351 236.311 19.59 236.419 19.5376L239.329 18.1071C239.417 18.0646 239.462 17.9598 239.434 17.8674C239.142 16.9137 238.715 16.1024 238.148 15.4333C237.549 14.7268 236.814 14.195 235.94 13.838C235.067 13.481 234.075 13.3013 232.965 13.3013C231.445 13.3013 230.151 13.5435 229.083 14.0303C228.016 14.5171 227.2 15.2311 226.634 16.1723C226.068 17.1135 225.786 18.2469 225.786 19.5725V20.1991C225.786 21.6321 226.075 22.7705 226.652 23.6144C227.228 24.4582 227.928 25.0723 228.754 25.4518C229.579 25.8313 230.649 26.2032 231.963 26.5652C231.963 26.5652 232.094 26.6077 232.27 26.6626C233.154 26.9097 233.859 27.1469 234.38 27.3766C234.903 27.6063 235.339 27.9183 235.689 28.3153C236.039 28.7097 236.215 29.229 236.215 29.8706V30.8642C236.215 31.7305 235.895 32.4095 235.253 32.9014C234.611 33.3932 233.72 33.6378 232.577 33.6378C231.608 33.6378 230.78 33.3757 230.095 32.8514C229.461 32.3671 228.995 31.6831 228.701 30.8043C228.663 30.6919 228.537 30.632 228.429 30.682L225.363 32.0725C225.272 32.115 225.224 32.2173 225.252 32.3122C225.547 33.3183 226.002 34.1696 226.619 34.8611C227.271 35.5926 228.092 36.1493 229.076 36.5288C230.063 36.9082 231.198 37.098 232.479 37.098C234.01 37.098 235.326 36.8533 236.424 36.3615C237.524 35.8697 238.36 35.1557 238.931 34.2195C239.502 33.2833 239.787 32.1599 239.787 30.8442V29.8331C239.787 28.4751 239.523 27.3866 238.994 26.5702C238.465 25.7514 237.811 25.1447 237.03 24.7503L237.028 24.7553Z" fill="white"/>
</g>
</g>
</g>
<defs>
<clipPath id="clip0_895_79">
<rect width="273" height="50" fill="white"/>
</clipPath>
<clipPath id="clip1_895_79">
<rect width="273" height="50" fill="white"/>
</clipPath>
</defs>
</svg>
