<svg xmlns="http://www.w3.org/2000/svg" viewBox="0 0 191.22 53.51"><defs><style>.cls-1{fill:#fff;}</style></defs><g id="Ebene_2" data-name="Ebene 2"><g id="Ebene_1-2" data-name="Ebene 1"><path id="black-plate" class="cls-1" d="M127.46,53.48a5.11,5.11,0,1,1,5.11-5.11A5.12,5.12,0,0,1,127.46,53.48Zm0-9.15a4.07,4.07,0,1,0,4.07,4.07A4.09,4.09,0,0,0,127.46,44.33ZM21.29,53.27V44.52H25v-1H16.58v1h3.67v8.75Zm27.88.21a4.16,4.16,0,0,0,4.31-3.18l-1-.21a3.14,3.14,0,0,1-3.27,2.35c-2.08,0-3.74-1.44-3.74-4.07S47,44.3,49.14,44.3a3,3,0,0,1,3.12,2.21l1-.28a3.93,3.93,0,0,0-4.1-3c-2.82,0-4.78,2-4.78,5.08S46.38,53.48,49.17,53.48Zm12.39-.21V48.56h5.93v4.71h1V43.48h-1v4.07H61.56v-4h-1V53.3h1Zm55.22,0v-1h-5.63V43.48h-1v9.79Zm65.78.21c2.15,0,3.58-1.13,3.58-2.75s-1.19-2.36-3.21-3-2.66-.95-2.66-2c0-.83.77-1.44,2-1.44a2.64,2.64,0,0,1,2.6,1.65l1-.52a3.53,3.53,0,0,0-3.55-2.2c-1.93,0-3.24,1.1-3.24,2.6,0,1.72,1.25,2.27,3.33,2.88s2.54,1.1,2.54,2-.95,1.62-2.35,1.62a2.83,2.83,0,0,1-2.85-2l-1,.43A3.79,3.79,0,0,0,182.56,53.48Zm-144.68-9v-1H31.61v9.79h6.27v-1H32.65V49h4.92v-1H32.65V44.49h5.23Zm39.53,8.75V45.8l7.49,7.71v-10h-1V51L76.4,43.26v10Zm20,.21a5.11,5.11,0,1,1,5.11-5.11A5.11,5.11,0,0,1,97.36,53.48Zm0-9.15a4.07,4.07,0,1,0,4.06,4.07A4.09,4.09,0,0,0,97.36,44.33Zm51.55,4.47v-.52h-4v1h2.88a3.37,3.37,0,0,1-3.67,3.12,4.07,4.07,0,1,1,3.42-6.33l.89-.58a5.24,5.24,0,0,0-4.31-2.27,5.11,5.11,0,1,0,0,10.22A4.45,4.45,0,0,0,148.91,48.8Zm7.92-5.32v9.79h1V43.48ZM186.14,1.25h-20.8V4.8h20.8Zm0,28.89h-20.8v3.55h20.8ZM180.85,15.7H165.37v3.54h15.48ZM147.44,1.25V26.56L120.06,0V33.72h3.55V8.38L151,35V1.25ZM57,33.69,46.51,20.59h3.24c5.93,0,9.45-4.22,9.45-9.61A9.48,9.48,0,0,0,50,1.25H34.48V4.8H50c3.31,0,5.66,2.94,5.66,6.18s-2.11,6-5.32,6H39.13L52.44,33.69ZM0,1.25V4.8H16.58V33.69h3.55V1.25ZM188.32,43.72v1.81h-.25V43.72h-.64v-.24H189v.24Zm2.9,1.84H191V43.84l-.61,1.72h-.28l-.61-1.72v1.72h-.25V43.51h.4l.61,1.74.62-1.74h.36Zm-18.81-1v-1h-6.28v9.79h6.28v-1h-5.23V49h4.92v-1h-4.92V44.49h5.23Z"/><path id="purple-uplift" class="cls-1" d="M103.41,33.69,88.51,7,73.61,33.69H69.45L88.51,0l19.06,33.72h-4.16Z"/></g></g></svg>